<svg version="1.1" id="Layer_1" xmlns="http://www.w3.org/2000/svg" xmlns:xlink="http://www.w3.org/1999/xlink" x="0px" y="0px"
	 width="100%" viewBox="0 0 1023 1023" enable-background="new 0 0 1023 1023" xml:space="preserve">
<path fill="#154F5D" opacity="1.000000" stroke="none" 
	d="
M812.000000,1024.000000 
	C809.958313,1024.000000 807.916687,1024.000000 805.170227,1023.669434 
	C803.152466,1023.216064 801.839478,1022.986023 800.526489,1022.985840 
	C608.221313,1022.959961 415.916138,1022.948242 223.610992,1022.984558 
	C222.073929,1022.984863 220.536987,1023.646912 219.000000,1024.000000 
	C216.958328,1024.000000 214.916672,1024.000000 212.250275,1023.618286 
	C207.337082,1022.793945 203.041367,1022.411804 198.761276,1021.899292 
	C163.284912,1017.651306 130.516006,1005.662720 101.156181,985.485474 
	C48.170086,949.071106 15.658542,899.091125 4.634574,835.143188 
	C4.448658,833.200806 4.099128,831.658203 3.584853,829.760193 
	C3.097043,826.784058 2.773978,824.163391 2.619892,821.152039 
	C2.611799,819.152527 2.434727,817.543701 2.198074,815.619995 
	C2.086070,814.881653 2.033647,814.458130 2.255758,813.740601 
	C2.361568,807.981140 2.045846,802.515686 2.045389,797.050171 
	C2.029407,606.245789 2.045624,415.441406 2.009103,224.637039 
	C2.008807,223.091293 1.350878,221.545670 1.000000,220.000000 
	C1.000000,217.629440 1.000000,215.258896 1.376579,212.249680 
	C2.528630,205.186264 3.205116,198.747726 4.096197,192.339035 
	C8.690371,159.297592 20.427965,128.808594 39.247501,101.462654 
	C77.921730,45.266621 131.166351,12.103871 199.073135,3.057676 
	C203.396744,2.481708 207.691711,1.690875 212.000000,1.000000 
	C214.370560,1.000000 216.741104,1.000000 219.832550,1.320922 
	C221.864014,1.778618 223.174561,2.035168 224.485123,2.035206 
	C413.607544,2.040633 602.729980,2.021861 791.852417,2.044684 
	C797.001709,2.045305 802.149475,2.546618 807.301392,2.676457 
	C808.546509,2.707835 809.805420,2.188864 811.446777,1.888325 
	C812.868408,1.970989 813.901245,2.088299 815.280029,2.434061 
	C817.917419,2.636038 820.208801,2.609563 822.889526,2.640834 
	C824.818481,3.137120 826.332214,3.764188 827.902588,3.980759 
	C833.902954,4.808301 840.029968,5.016006 845.916321,6.324884 
	C897.458679,17.785776 940.163574,43.937176 973.497375,84.820885 
	C1000.627747,118.096054 1016.711792,156.314453 1021.936584,199.015747 
	C1022.548889,204.019730 1023.308594,209.005692 1024.000000,214.000000 
	C1024.000000,215.714355 1024.000000,217.428711 1023.672791,219.842148 
	C1023.215881,221.853546 1022.972595,223.165863 1022.972473,224.478180 
	C1022.962524,416.443115 1022.967896,608.408081 1023.019531,800.372986 
	C1023.019958,801.915405 1023.659058,803.457642 1024.000000,805.000000 
	C1024.000000,807.041687 1024.000000,809.083313 1023.636108,811.780151 
	C1022.022034,822.487427 1021.449158,832.679749 1019.402405,842.566895 
	C1011.287231,881.768921 994.474670,916.811768 967.781799,946.854919 
	C929.990784,989.389099 882.851440,1014.396301 826.434326,1021.895325 
	C821.614807,1022.535950 816.811035,1023.295654 812.000000,1024.000000 
M185.853195,660.442139 
	C185.418549,665.740479 185.650436,671.208496 184.357834,676.288513 
	C183.117889,681.161682 184.622223,683.400452 188.746552,684.828064 
	C204.199539,673.755859 221.501862,671.950317 239.362366,674.840881 
	C248.466766,676.314331 257.166687,680.137817 266.225433,682.076782 
	C280.668854,685.168335 295.368683,685.203369 309.948730,683.178101 
	C343.928223,678.458252 368.096832,660.679565 378.982056,627.696472 
	C390.118134,593.953308 390.618439,559.341187 383.326569,524.685791 
	C379.791473,507.884857 372.299408,492.939941 359.361694,481.246582 
	C343.666595,467.061035 324.845947,464.207947 304.721924,467.031677 
	C285.973358,469.662354 270.102539,477.396606 259.393097,493.780121 
	C259.094208,494.237305 258.457642,494.473785 257.213318,495.355377 
	C257.213318,452.048553 257.213318,409.533386 257.213318,366.632812 
	C226.005325,372.123444 195.175674,372.849640 164.070068,371.073486 
	C164.070068,373.789215 164.070068,376.170441 164.070068,378.907043 
	C176.535614,378.912689 182.199509,386.328583 184.441223,397.184570 
	C185.243774,401.071198 185.726120,405.099640 185.730774,409.064087 
	C185.828629,492.528564 185.837097,575.993164 185.853195,660.442139 
M703.622131,394.499878 
	C703.622131,385.396179 703.622131,376.292480 703.622131,367.329071 
	C687.703125,368.827789 672.379395,370.843292 656.995239,371.558594 
	C641.436279,372.282013 625.817383,371.718140 610.046997,371.718140 
	C610.046997,373.781677 610.046997,376.180664 610.046997,378.515594 
	C623.752747,381.117645 628.085693,385.109711 630.486084,397.619110 
	C631.235413,401.524384 631.752197,405.544098 631.756714,409.512146 
	C631.845215,487.160950 631.860474,564.809875 631.809021,642.458740 
	C631.806213,646.764465 631.401611,651.123718 630.650452,655.363525 
	C629.203125,663.532410 624.570801,668.861328 616.043091,670.206909 
	C614.103210,670.513062 612.162598,670.814148 610.101868,671.136414 
	C610.101868,673.630432 610.101868,676.004333 610.101868,677.910217 
	C648.847046,677.910217 687.220520,677.910217 725.624268,677.910217 
	C725.624268,675.658325 725.624268,673.409668 725.624268,671.057068 
	C724.142761,670.912720 722.989746,670.834595 721.846313,670.683594 
	C710.957642,669.245667 705.468506,663.823059 704.294250,652.891052 
	C703.708496,647.437378 703.373413,641.928162 703.375916,636.444214 
	C703.412537,556.129456 703.525391,475.814667 703.622131,394.499878 
M413.796173,582.482544 
	C414.808929,592.396301 415.208435,602.419983 416.961853,612.200989 
	C420.632172,632.674622 428.733826,651.011353 445.335022,664.584412 
	C459.587128,676.237000 476.150055,682.169250 494.312469,683.748596 
	C520.952881,686.065186 544.909546,680.338379 563.795349,659.896301 
	C575.244202,647.503967 583.642395,633.380676 588.658630,617.219055 
	C584.799316,614.307739 582.458679,614.668091 579.117981,618.470154 
	C574.129089,624.148010 568.466003,629.753174 562.000916,633.521179 
	C538.351074,647.305115 510.668732,643.417908 496.342682,616.484619 
	C490.943085,606.333313 489.165833,595.049622 488.446381,583.754639 
	C487.849365,574.381897 488.324219,564.940918 488.324219,554.992737 
	C523.019348,554.992737 557.060547,554.992737 592.537476,554.992737 
	C590.650452,541.971497 589.817261,529.457581 586.891479,517.453674 
	C580.952209,493.086456 566.557190,475.783051 541.492188,469.171265 
	C523.073486,464.312622 504.488983,465.118866 486.135101,469.545319 
	C456.478333,476.697723 434.579285,493.483948 422.758575,522.211975 
	C414.934143,541.227844 413.267609,561.197693 413.796173,582.482544 
M757.668579,472.775848 
	C752.580505,472.468445 747.492432,472.161041 742.457397,471.856842 
	C741.050842,477.097748 741.583252,479.989380 747.721436,480.370575 
	C753.352295,480.720245 757.794800,484.432251 759.819702,489.652374 
	C761.774658,494.692017 763.581421,500.164795 763.688416,505.482819 
	C764.261597,533.961670 764.401855,562.451416 764.453308,590.937866 
	C764.488586,610.428650 764.485168,629.931763 763.839172,649.407410 
	C763.354004,664.035095 757.581604,669.481140 743.052795,670.962891 
	C742.777466,670.990906 742.532776,671.319641 742.230469,671.539612 
	C742.230469,673.758667 742.230469,675.992004 742.230469,677.907288 
	C780.967102,677.907288 819.358032,677.907288 857.854675,677.907288 
	C857.854675,675.744202 857.854675,673.359192 857.854675,671.012451 
	C842.617676,669.640381 836.885010,663.679016 836.215637,648.702820 
	C836.022278,644.376892 835.985352,640.040894 835.989807,635.709595 
	C836.045593,581.552429 836.122192,527.395203 836.193115,473.238037 
	C836.195435,471.453064 836.193420,469.668091 836.193420,467.924377 
	C822.982788,469.247894 810.309265,470.896240 797.582458,471.687103 
	C784.626953,472.492157 771.618958,472.452911 757.668579,472.775848 
M771.753601,429.946320 
	C788.267273,435.996399 804.893616,436.610321 821.478088,430.467377 
	C834.202454,425.754272 841.083557,414.894318 841.080200,400.377991 
	C841.076843,386.277069 833.973083,375.631409 821.552734,370.691284 
	C809.878235,366.047760 797.822083,365.968872 785.660950,367.489502 
	C777.437317,368.517853 769.879578,371.335724 763.501526,376.935272 
	C750.870178,388.024872 749.851624,419.745239 771.753601,429.946320 
z"/>
<path fill="#FEFEFE" opacity="1.000000" stroke="none" 
	d="
M1024.000000,213.531342 
	C1023.308594,209.005692 1022.548889,204.019730 1021.936584,199.015747 
	C1016.711792,156.314453 1000.627747,118.096054 973.497375,84.820885 
	C940.163574,43.937176 897.458679,17.785776 845.916321,6.324884 
	C840.029968,5.016006 833.902954,4.808301 827.902588,3.980759 
	C826.332214,3.764188 824.818481,3.137120 822.515869,2.436574 
	C819.479980,2.184916 817.207031,2.195265 814.934082,2.205612 
	C813.901245,2.088299 812.868408,1.970989 811.461609,1.655735 
	C811.087646,1.457791 811.000000,1.000000 811.000000,1.000000 
	C881.927002,1.000000 952.854065,1.000000 1024.000000,1.000000 
	C1024.000000,71.687408 1024.000000,142.375046 1024.000000,213.531342 
z"/>
<path fill="#FEFEFE" opacity="1.000000" stroke="none" 
	d="
M1.981224,814.034546 
	C2.033647,814.458130 2.086070,814.881653 2.073395,816.010376 
	C2.155835,818.324585 2.303374,819.933594 2.450913,821.542664 
	C2.773978,824.163391 3.097043,826.784058 3.534712,830.153320 
	C3.923199,832.448914 4.197081,833.995972 4.470962,835.542969 
	C15.658542,899.091125 48.170086,949.071106 101.156181,985.485474 
	C130.516006,1005.662720 163.284912,1017.651306 198.761276,1021.899292 
	C203.041367,1022.411804 207.337082,1022.793945 211.812775,1023.618286 
	C141.739807,1024.000000 71.479622,1024.000000 1.000000,1024.000000 
	C1.000000,954.312622 1.000000,884.624939 1.243843,814.518799 
	C1.487686,814.100342 1.981223,814.034546 1.981224,814.034546 
z"/>
<path fill="#FEFEFE" opacity="1.000000" stroke="none" 
	d="
M812.468628,1024.000000 
	C816.811035,1023.295654 821.614807,1022.535950 826.434326,1021.895325 
	C882.851440,1014.396301 929.990784,989.389099 967.781799,946.854919 
	C994.474670,916.811768 1011.287231,881.768921 1019.402405,842.566895 
	C1021.449158,832.679749 1022.022034,822.487427 1023.636108,812.217651 
	C1024.000000,882.593689 1024.000000,953.187378 1024.000000,1024.000000 
	C953.645935,1024.000000 883.291626,1024.000000 812.468628,1024.000000 
z"/>
<path fill="#FEFEFE" opacity="1.000000" stroke="none" 
	d="
M211.531342,1.000000 
	C207.691711,1.690875 203.396744,2.481708 199.073135,3.057676 
	C131.166351,12.103871 77.921730,45.266621 39.247501,101.462654 
	C20.427965,128.808594 8.690371,159.297592 4.096197,192.339035 
	C3.205116,198.747726 2.528630,205.186264 1.376579,211.805511 
	C1.000000,141.739624 1.000000,71.479256 1.000000,1.000000 
	C71.020744,1.000000 141.041718,1.000000 211.531342,1.000000 
z"/>
<path fill="#5A787D" opacity="1.000000" stroke="none" 
	d="
M2.255757,813.740601 
	C1.981223,814.034546 1.487686,814.100342 1.243843,814.050171 
	C1.000000,616.312439 1.000000,418.624878 1.000000,220.468658 
	C1.350878,221.545670 2.008807,223.091293 2.009103,224.637039 
	C2.045624,415.441406 2.029407,606.245789 2.045389,797.050171 
	C2.045846,802.515686 2.361568,807.981140 2.255757,813.740601 
z"/>
<path fill="#5B787F" opacity="1.000000" stroke="none" 
	d="
M810.531372,1.000000 
	C811.000000,1.000000 811.087646,1.457791 811.072815,1.690381 
	C809.805420,2.188864 808.546509,2.707835 807.301392,2.676457 
	C802.149475,2.546618 797.001709,2.045305 791.852417,2.044684 
	C602.729980,2.021861 413.607544,2.040633 224.485123,2.035206 
	C223.174561,2.035168 221.864014,1.778618 220.276733,1.320922 
	C416.687561,1.000000 613.375122,1.000000 810.531372,1.000000 
z"/>
<path fill="#677679" opacity="1.000000" stroke="none" 
	d="
M219.468658,1024.000000 
	C220.536987,1023.646912 222.073929,1022.984863 223.610992,1022.984558 
	C415.916138,1022.948242 608.221313,1022.959961 800.526489,1022.985840 
	C801.839478,1022.986023 803.152466,1023.216064 804.732727,1023.669434 
	C609.979126,1024.000000 414.958221,1024.000000 219.468658,1024.000000 
z"/>
<path fill="#677679" opacity="1.000000" stroke="none" 
	d="
M1024.000000,804.531372 
	C1023.659058,803.457642 1023.019958,801.915405 1023.019531,800.372986 
	C1022.967896,608.408081 1022.962524,416.443115 1022.972473,224.478180 
	C1022.972595,223.165863 1023.215881,221.853546 1023.672791,220.270615 
	C1024.000000,414.687561 1024.000000,609.375122 1024.000000,804.531372 
z"/>
<path fill="#EDEDED" opacity="1.000000" stroke="none" 
	d="
M185.858139,659.949951 
	C185.837097,575.993164 185.828629,492.528564 185.730774,409.064087 
	C185.726120,405.099640 185.243774,401.071198 184.441223,397.184570 
	C182.199509,386.328583 176.535614,378.912689 164.070068,378.907043 
	C164.070068,376.170441 164.070068,373.789215 164.070068,371.073486 
	C195.175674,372.849640 226.005325,372.123444 257.213318,366.632812 
	C257.213318,409.533386 257.213318,452.048553 257.213318,495.355377 
	C258.457642,494.473785 259.094208,494.237305 259.393097,493.780121 
	C270.102539,477.396606 285.973358,469.662354 304.721924,467.031677 
	C324.845947,464.207947 343.666595,467.061035 359.361694,481.246582 
	C372.299408,492.939941 379.791473,507.884857 383.326569,524.685791 
	C390.618439,559.341187 390.118134,593.953308 378.982056,627.696472 
	C368.096832,660.679565 343.928223,678.458252 309.948730,683.178101 
	C295.368683,685.203369 280.668854,685.168335 266.225433,682.076782 
	C257.166687,680.137817 248.466766,676.314331 239.362366,674.840881 
	C221.501862,671.950317 204.199539,673.755859 188.746552,684.828064 
	C184.622223,683.400452 183.117889,681.161682 184.357834,676.288513 
	C185.650436,671.208496 185.418549,665.740479 185.858139,659.949951 
M312.988770,551.361084 
	C312.581970,545.215698 312.419830,539.042175 311.716003,532.931030 
	C310.363464,521.187195 308.623932,509.519196 303.004517,498.823669 
	C297.786194,488.891541 290.640533,484.972351 280.857269,486.963440 
	C266.197601,489.946960 257.369385,501.617157 257.324951,518.430664 
	C257.250061,546.751831 257.306885,575.073303 257.307068,603.394653 
	C257.307220,624.718811 257.264984,646.043213 257.379883,667.366699 
	C257.389252,669.111511 257.973633,671.894897 259.118317,672.432007 
	C271.654846,678.313721 285.834747,679.630920 296.009583,666.490112 
	C303.353577,657.005310 306.652588,645.882690 308.786469,634.397034 
	C313.832214,607.238525 314.434814,579.818176 312.988770,551.361084 
z"/>
<path fill="#EDEDED" opacity="1.000000" stroke="none" 
	d="
M703.621094,394.999878 
	C703.525391,475.814667 703.412537,556.129456 703.375916,636.444214 
	C703.373413,641.928162 703.708496,647.437378 704.294250,652.891052 
	C705.468506,663.823059 710.957642,669.245667 721.846313,670.683594 
	C722.989746,670.834595 724.142761,670.912720 725.624268,671.057068 
	C725.624268,673.409668 725.624268,675.658325 725.624268,677.910217 
	C687.220520,677.910217 648.847046,677.910217 610.101868,677.910217 
	C610.101868,676.004333 610.101868,673.630432 610.101868,671.136414 
	C612.162598,670.814148 614.103210,670.513062 616.043091,670.206909 
	C624.570801,668.861328 629.203125,663.532410 630.650452,655.363525 
	C631.401611,651.123718 631.806213,646.764465 631.809021,642.458740 
	C631.860474,564.809875 631.845215,487.160950 631.756714,409.512146 
	C631.752197,405.544098 631.235413,401.524384 630.486084,397.619110 
	C628.085693,385.109711 623.752747,381.117645 610.046997,378.515594 
	C610.046997,376.180664 610.046997,373.781677 610.046997,371.718140 
	C625.817383,371.718140 641.436279,372.282013 656.995239,371.558594 
	C672.379395,370.843292 687.703125,368.827789 703.622131,367.329071 
	C703.622131,376.292480 703.622131,385.396179 703.621094,394.999878 
z"/>
<path fill="#ECEDED" opacity="1.000000" stroke="none" 
	d="
M413.792328,581.985229 
	C413.267609,561.197693 414.934143,541.227844 422.758575,522.211975 
	C434.579285,493.483948 456.478333,476.697723 486.135101,469.545319 
	C504.488983,465.118866 523.073486,464.312622 541.492188,469.171265 
	C566.557190,475.783051 580.952209,493.086456 586.891479,517.453674 
	C589.817261,529.457581 590.650452,541.971497 592.537476,554.992737 
	C557.060547,554.992737 523.019348,554.992737 488.324219,554.992737 
	C488.324219,564.940918 487.849365,574.381897 488.446381,583.754639 
	C489.165833,595.049622 490.943085,606.333313 496.342682,616.484619 
	C510.668732,643.417908 538.351074,647.305115 562.000916,633.521179 
	C568.466003,629.753174 574.129089,624.148010 579.117981,618.470154 
	C582.458679,614.668091 584.799316,614.307739 588.658630,617.219055 
	C583.642395,633.380676 575.244202,647.503967 563.795349,659.896301 
	C544.909546,680.338379 520.952881,686.065186 494.312469,683.748596 
	C476.150055,682.169250 459.587128,676.237000 445.335022,664.584412 
	C428.733826,651.011353 420.632172,632.674622 416.961853,612.200989 
	C415.208435,602.419983 414.808929,592.396301 413.792328,581.985229 
M500.925232,482.448517 
	C497.886749,490.279602 493.758301,497.881775 492.054871,505.993256 
	C489.211914,519.530579 487.920319,533.393677 485.913239,547.559937 
	C502.661987,547.559937 517.988770,547.559937 534.426270,547.559937 
	C533.346069,533.880737 532.916138,520.590820 531.040771,507.508179 
	C529.835205,499.097656 527.433167,490.564850 523.891846,482.856598 
	C519.373718,473.022247 510.527344,472.276672 502.923920,479.941376 
	C502.341217,480.528748 501.852142,481.208984 500.925232,482.448517 
z"/>
<path fill="#EDEDED" opacity="1.000000" stroke="none" 
	d="
M758.151245,472.779602 
	C771.618958,472.452911 784.626953,472.492157 797.582458,471.687103 
	C810.309265,470.896240 822.982788,469.247894 836.193420,467.924377 
	C836.193420,469.668091 836.195435,471.453064 836.193115,473.238037 
	C836.122192,527.395203 836.045593,581.552429 835.989807,635.709595 
	C835.985352,640.040894 836.022278,644.376892 836.215637,648.702820 
	C836.885010,663.679016 842.617676,669.640381 857.854675,671.012451 
	C857.854675,673.359192 857.854675,675.744202 857.854675,677.907288 
	C819.358032,677.907288 780.967102,677.907288 742.230469,677.907288 
	C742.230469,675.992004 742.230469,673.758667 742.230469,671.539612 
	C742.532776,671.319641 742.777466,670.990906 743.052795,670.962891 
	C757.581604,669.481140 763.354004,664.035095 763.839172,649.407410 
	C764.485168,629.931763 764.488586,610.428650 764.453308,590.937866 
	C764.401855,562.451416 764.261597,533.961670 763.688416,505.482819 
	C763.581421,500.164795 761.774658,494.692017 759.819702,489.652374 
	C757.794800,484.432251 753.352295,480.720245 747.721436,480.370575 
	C741.583252,479.989380 741.050842,477.097748 742.457397,471.856842 
	C747.492432,472.161041 752.580505,472.468445 758.151245,472.779602 
z"/>
<path fill="#ECEDED" opacity="1.000000" stroke="none" 
	d="
M771.420715,429.771271 
	C749.851624,419.745239 750.870178,388.024872 763.501526,376.935272 
	C769.879578,371.335724 777.437317,368.517853 785.660950,367.489502 
	C797.822083,365.968872 809.878235,366.047760 821.552734,370.691284 
	C833.973083,375.631409 841.076843,386.277069 841.080200,400.377991 
	C841.083557,414.894318 834.202454,425.754272 821.478088,430.467377 
	C804.893616,436.610321 788.267273,435.996399 771.420715,429.771271 
z"/>
<path fill="#5B787F" opacity="1.000000" stroke="none" 
	d="
M815.280029,2.434063 
	C817.207031,2.195265 819.479980,2.184916 822.126587,2.378828 
	C820.208801,2.609563 817.917419,2.636038 815.280029,2.434063 
z"/>
<path fill="#5A787D" opacity="1.000000" stroke="none" 
	d="
M2.619892,821.152039 
	C2.303374,819.933594 2.155835,818.324585 2.132976,816.325195 
	C2.434727,817.543701 2.611799,819.152527 2.619892,821.152039 
z"/>
<path fill="#5A787D" opacity="1.000000" stroke="none" 
	d="
M4.634575,835.143188 
	C4.197081,833.995972 3.923199,832.448914 3.699458,830.508789 
	C4.099128,831.658203 4.448658,833.200806 4.634575,835.143188 
z"/>
<path fill="#19515E" opacity="1.000000" stroke="none" 
	d="
M313.002197,551.835205 
	C314.434814,579.818176 313.832214,607.238525 308.786469,634.397034 
	C306.652588,645.882690 303.353577,657.005310 296.009583,666.490112 
	C285.834747,679.630920 271.654846,678.313721 259.118317,672.432007 
	C257.973633,671.894897 257.389252,669.111511 257.379883,667.366699 
	C257.264984,646.043213 257.307220,624.718811 257.307068,603.394653 
	C257.306885,575.073303 257.250061,546.751831 257.324951,518.430664 
	C257.369385,501.617157 266.197601,489.946960 280.857269,486.963440 
	C290.640533,484.972351 297.786194,488.891541 303.004517,498.823669 
	C308.623932,509.519196 310.363464,521.187195 311.716003,532.931030 
	C312.419830,539.042175 312.581970,545.215698 313.002197,551.835205 
z"/>
<path fill="#1B525E" opacity="1.000000" stroke="none" 
	d="
M501.122375,482.147278 
	C501.852142,481.208984 502.341217,480.528748 502.923920,479.941376 
	C510.527344,472.276672 519.373718,473.022247 523.891846,482.856598 
	C527.433167,490.564850 529.835205,499.097656 531.040771,507.508179 
	C532.916138,520.590820 533.346069,533.880737 534.426270,547.559937 
	C517.988770,547.559937 502.661987,547.559937 485.913239,547.559937 
	C487.920319,533.393677 489.211914,519.530579 492.054871,505.993256 
	C493.758301,497.881775 497.886749,490.279602 501.122375,482.147278 
z"/>
</svg>