<?xml version="1.0" encoding="UTF-8"?>
<svg version="1.1" xmlns="http://www.w3.org/2000/svg" width="512" height="512">
<path d="M0 0 C1.18586763 -0.00623996 2.37173527 -0.01247993 3.59353828 -0.01890898 C6.8541121 -0.03201757 10.11408076 -0.02741684 13.37463856 -0.0149641 C16.90300881 -0.00586155 20.43130129 -0.01990896 23.95965576 -0.03088379 C30.85942096 -0.04861844 37.75901156 -0.0448517 44.65878344 -0.03323323 C50.26913917 -0.02417919 55.87944617 -0.0229834 61.48980713 -0.02732849 C62.28999555 -0.02794142 63.09018397 -0.02855436 63.91462052 -0.02918586 C65.54047061 -0.03046483 67.1663207 -0.03176169 68.79217076 -0.03307623 C84.01787617 -0.04446722 99.24348505 -0.03139162 114.46917462 -0.00987476 C127.51774676 0.00799489 140.56617653 0.00489036 153.61474609 -0.0135498 C168.78803537 -0.03498274 183.96124017 -0.04336872 199.13454247 -0.03110075 C200.7542254 -0.02982663 202.37390835 -0.02856914 203.99359131 -0.02732849 C205.18879023 -0.02640284 205.18879023 -0.02640284 206.40813458 -0.02545848 C212.00813339 -0.02201285 217.60807837 -0.02781693 223.20806885 -0.0372467 C230.03780368 -0.04849505 236.86735476 -0.04536733 243.69706869 -0.02412373 C247.17801869 -0.01365121 250.65866293 -0.00942589 254.13961029 -0.02272034 C257.92117588 -0.03368582 261.70188696 -0.01989808 265.48339844 0 C266.57222887 -0.00892289 267.6610593 -0.01784577 268.7828846 -0.02703905 C278.74358109 0.07429681 287.66105433 2.44615103 295.01904297 9.44152832 C300.10545454 15.54291545 302.85974887 22.60093004 302.8759203 30.49843693 C302.88037814 31.50980215 302.88483598 32.52116737 302.88942891 33.56318003 C302.88915237 35.22701051 302.88915237 35.22701051 302.88887024 36.92445374 C302.89254693 38.1043404 302.89622362 39.28422706 302.90001172 40.49986786 C302.90913031 43.7760564 302.91374645 47.05221551 302.91640103 50.32841456 C302.92030793 53.86165622 302.92988606 57.39488342 302.93861389 60.92811584 C302.95836834 69.46198208 302.96844363 77.99584948 302.97734168 86.52973285 C302.98172662 90.55045661 302.98709293 94.57117906 302.99233055 98.59190178 C303.0093425 111.96141187 303.02383578 125.33092115 303.03107929 138.70044041 C303.03298913 142.16923079 303.03490947 145.63802117 303.03686523 149.10681152 C303.03734897 149.96894239 303.03783271 150.83107325 303.03833111 151.71932929 C303.04662806 165.67938199 303.07195944 179.63934891 303.10444591 193.59936417 C303.13754148 207.93827299 303.15553035 222.27713826 303.15872353 236.61608547 C303.16088642 244.66422688 303.16960245 252.71224323 303.19518471 260.76034737 C303.21692594 267.61584376 303.22492539 274.47118471 303.21521793 281.32671166 C303.21068295 284.82180865 303.21251199 288.31658516 303.23197937 291.81163788 C303.24969026 295.60887087 303.24259464 299.40529605 303.22944641 303.20252991 C303.24590028 304.84293781 303.24590028 304.84293781 303.26268655 306.51648527 C303.17952929 316.49450651 300.81608249 325.41403683 293.80810547 332.78527832 C287.56037767 337.99368656 280.14281355 340.86994413 272.01513672 340.71887207 C264.191867 339.99300168 257.24653771 337.17780034 251.74169922 331.50793457 C246.19590664 323.8598154 244.59452323 318.18343504 244.58348083 308.82672119 C244.57607387 307.49852368 244.57607387 307.49852368 244.56851727 306.14349389 C244.55313624 303.1709005 244.54477998 300.19832871 244.53637695 297.22570801 C244.52679891 295.0970643 244.51678887 292.96842251 244.50637817 290.83978271 C244.47931509 285.05509227 244.45831309 279.27039366 244.43837619 273.48567486 C244.41652532 267.44248143 244.38913223 261.39931322 244.36231995 255.35614014 C244.31238091 243.90984651 244.26744656 232.46353889 244.22429758 221.01721787 C244.17493557 207.98712661 244.12001359 194.95706064 244.06461799 181.92699385 C243.95077935 155.12066436 243.84394439 128.3143106 243.74169922 101.50793457 C243.25383202 101.99694093 242.76596482 102.48594729 242.26331377 102.98977202 C213.34547149 131.97475462 184.41979653 160.95190003 155.48393515 189.91889463 C152.00925249 193.39732939 148.53463531 196.87582954 145.06005859 200.35437012 C144.36833445 201.04688119 143.67661031 201.73939227 142.96392483 202.45288853 C131.76511247 213.6647533 120.57161193 224.88190681 109.38006693 236.10102525 C97.89562444 247.61352645 86.40548872 259.12032233 74.91005278 270.6218465 C67.81746092 277.71855381 60.72934225 284.81966902 53.64688867 291.92649452 C48.78916738 296.80007872 43.92592489 301.66810798 39.05831867 306.53181925 C36.25052388 309.33769338 33.44521435 312.14593873 30.6464386 314.96081161 C28.08161042 317.54028306 25.50988773 320.11266967 22.93261999 322.67971049 C21.56555738 324.04491369 20.20587489 325.41749491 18.84651232 326.7903654 C10.89280289 334.68642401 3.51526 340.42728357 -8.00830078 340.88293457 C-16.42098695 340.7161403 -23.52809374 338.0409638 -29.72314453 332.28527832 C-35.90854115 325.1240685 -37.67299313 317.91228342 -37.51611328 308.65637207 C-36.01441482 290.31744844 -14.24042813 275.34961999 -2.04394925 263.17751741 C0.6986827 260.43924817 3.43837845 257.69804371 6.17845154 254.95721436 C10.9135409 250.22160341 15.65044176 245.48781092 20.38861656 240.75528717 C27.23902135 233.91304725 34.08662726 227.06801178 40.93357704 220.22231469 C52.04531263 209.11276181 63.15927445 198.00543885 74.2746582 186.89953613 C85.06522534 176.11816335 95.85473025 165.33572935 106.64282227 154.55187988 C107.30901932 153.88594556 107.97521637 153.22001123 108.66160121 152.53389707 C112.00407344 149.19272998 115.34652495 145.85154216 118.68896616 142.51034403 C146.36999869 114.8396598 174.0546535 87.17260198 201.74169922 59.50793457 C200.08571685 59.50573473 200.08571685 59.50573473 198.39628029 59.50349045 C171.52114842 59.46687887 144.64614102 59.4074074 117.77111244 59.32403183 C104.77448955 59.28423986 91.77792722 59.2518481 78.78125 59.23693848 C67.45199806 59.22392286 56.12287938 59.19696026 44.79370248 59.1533215 C38.79620205 59.13070494 32.79886598 59.11502403 26.80131912 59.11605072 C21.15255622 59.1167972 15.5041567 59.09885075 9.85548782 59.06676674 C7.7859564 59.05827046 5.7163842 59.05651594 3.64684296 59.06213188 C-18.27070749 59.11367078 -18.27070749 59.11367078 -27.57080078 52.25793457 C-34.12310545 45.55325073 -36.83714095 38.81454839 -37.57080078 29.57043457 C-37.31530667 20.90066765 -33.39920753 13.31984652 -27.19580078 7.38293457 C-19.14853771 0.97569075 -9.96793502 -0.08168651 0 0 Z " fill="#FFFFFF" transform="translate(123.25830078125,85.4920654296875)"/>
</svg>
