<?xml version="1.0" encoding="UTF-8"?>
<svg version="1.1" xmlns="http://www.w3.org/2000/svg" width="512" height="512">
<path d="M0 0 C2.35854249 -0.00435324 4.71708356 -0.00953843 7.07562256 -0.01548767 C13.45183996 -0.02882391 19.82799788 -0.02946227 26.20422649 -0.02692437 C30.19568696 -0.0261216 34.18713824 -0.02827327 38.1785965 -0.03191185 C38.84356426 -0.03250704 39.50853202 -0.03310223 40.19365032 -0.03371545 C41.54504695 -0.03492735 42.89644357 -0.03614149 44.2478402 -0.03735783 C56.8908547 -0.04820729 69.53384247 -0.04608338 82.17685845 -0.03997298 C93.70733087 -0.03480784 105.23771869 -0.04605326 116.76817438 -0.0650712 C128.64623634 -0.0845102 140.52425841 -0.09269491 152.40233636 -0.08894795 C159.05545607 -0.08704485 165.70851427 -0.08970554 172.36162567 -0.10366249 C178.62278587 -0.11630684 184.88377777 -0.11423452 191.14493561 -0.1012516 C193.43086302 -0.0989005 195.71680253 -0.10156728 198.00271606 -0.10987473 C214.41540772 -0.16517818 229.75954263 1.06471707 245.51660156 5.9621582 C246.34522705 6.21779541 247.17385254 6.47343262 248.02758789 6.73681641 C267.53470895 12.96091447 285.13860443 22.77342859 300.57910156 36.2746582 C301.08393066 36.71390625 301.58875977 37.1531543 302.10888672 37.60571289 C313.78948281 47.84139395 323.00716918 59.35157383 331.57910156 72.2746582 C332.11277344 73.05969727 332.64644531 73.84473633 333.19628906 74.65356445 C340.53045873 86.05126056 345.20442609 99.19891036 348.95410156 112.1496582 C349.19257813 112.96797119 349.43105469 113.78628418 349.67675781 114.62939453 C353.72934846 129.32149973 353.87226304 143.56494085 353.85375977 158.69555664 C353.85811301 161.05409913 353.86329819 163.4126402 353.86924744 165.7711792 C353.88258367 172.1473966 353.88322203 178.52355452 353.88068414 184.89978313 C353.87988136 188.8912436 353.88203303 192.88269488 353.88567162 196.87415314 C353.8862668 197.5391209 353.88686199 198.20408866 353.88747522 198.88920696 C353.88868712 200.24060359 353.88990125 201.59200021 353.8911176 202.94339684 C353.90196705 215.58641134 353.89984315 228.22939911 353.89373275 240.8724151 C353.88856761 252.40288751 353.89981302 263.93327533 353.91883097 275.46373102 C353.93826996 287.34179298 353.94645468 299.21981505 353.94270772 311.097893 C353.94080462 317.75101271 353.94346531 324.40407091 353.95742226 331.05718231 C353.97006661 337.31834251 353.96799429 343.57933441 353.95501137 349.84049225 C353.95266027 352.12641967 353.95532705 354.41235917 353.96363449 356.69827271 C354.01893794 373.11096436 352.78904269 388.45509927 347.89160156 404.2121582 C347.63596436 405.04078369 347.38032715 405.86940918 347.11694336 406.72314453 C340.89284529 426.23026559 331.08033117 443.83416107 317.57910156 459.2746582 C317.13985352 459.7794873 316.70060547 460.28431641 316.24804688 460.80444336 C306.01236582 472.48503945 294.50218594 481.70272582 281.57910156 490.2746582 C280.7940625 490.80833008 280.00902344 491.34200195 279.20019531 491.8918457 C267.80249921 499.22601537 254.6548494 503.89998274 241.70410156 507.6496582 C240.88578857 507.88813477 240.06747559 508.12661133 239.22436523 508.37231445 C224.53226004 512.4249051 210.28881891 512.56781968 195.15820312 512.54931641 C192.79966064 512.55366965 190.44111957 512.55885483 188.08258057 512.56480408 C181.70636317 512.57814031 175.33020525 512.57877867 168.95397663 512.57624078 C164.96251617 512.575438 160.97106489 512.57758967 156.97960663 512.58122826 C156.31463887 512.58182345 155.6496711 512.58241863 154.9645528 512.58303186 C153.61315618 512.58424376 152.26175955 512.58545789 150.91036293 512.58667424 C138.26734842 512.59752369 125.62436066 512.59539979 112.98134467 512.58928939 C101.45087226 512.58412425 89.92048443 512.59536966 78.39002874 512.61438761 C66.51196678 512.6338266 54.63394471 512.64201132 42.75586677 512.63826436 C36.10274705 512.63636126 29.44968885 512.63902195 22.79657745 512.6529789 C16.53541725 512.66562325 10.27442536 512.66355093 4.01326752 512.65056801 C1.7273401 512.64821691 -0.55859941 512.65088369 -2.84451294 512.65919113 C-19.25720459 512.71449458 -34.6013395 511.48459933 -50.35839844 506.5871582 C-51.18702393 506.331521 -52.01564941 506.07588379 -52.86938477 505.8125 C-72.37650582 499.58840193 -89.9804013 489.77588781 -105.42089844 476.2746582 C-105.92572754 475.83541016 -106.43055664 475.39616211 -106.95068359 474.94360352 C-118.63127968 464.70792246 -127.84896605 453.19774258 -136.42089844 440.2746582 C-137.22140625 439.09709961 -137.22140625 439.09709961 -138.03808594 437.89575195 C-145.37225561 426.49805585 -150.04622297 413.35040604 -153.79589844 400.3996582 C-154.15361328 399.17218872 -154.15361328 399.17218872 -154.51855469 397.91992188 C-158.57114534 383.22781668 -158.71405991 368.98437555 -158.69555664 353.85375977 C-158.69990988 351.49521728 -158.70509507 349.13667621 -158.71104431 346.77813721 C-158.72438055 340.40191981 -158.72501891 334.02576189 -158.72248101 327.64953327 C-158.72167824 323.65807281 -158.72382991 319.66662153 -158.72746849 315.67516327 C-158.72806368 315.01019551 -158.72865887 314.34522775 -158.72927209 313.66010945 C-158.73048399 312.30871282 -158.73169813 310.95731619 -158.73291447 309.60591957 C-158.74376393 296.96290506 -158.74164003 284.3199173 -158.73552962 271.67690131 C-158.73036448 260.1464289 -158.7416099 248.61604107 -158.76062784 237.08558539 C-158.78006684 225.20752342 -158.78825155 213.32950136 -158.78450459 201.45142341 C-158.78260149 194.79830369 -158.78526219 188.14524549 -158.79921913 181.49213409 C-158.81186348 175.23097389 -158.80979117 168.969982 -158.79680824 162.70882416 C-158.79445714 160.42289674 -158.79712392 158.13695723 -158.80543137 155.8510437 C-158.86073482 139.43835205 -157.63083957 124.09421714 -152.73339844 108.3371582 C-152.34994263 107.09421997 -152.34994263 107.09421997 -151.95874023 105.82617188 C-145.73464217 86.31905082 -135.92212805 68.71515534 -122.42089844 53.2746582 C-121.76202637 52.51741455 -121.76202637 52.51741455 -121.08984375 51.74487305 C-110.85416269 40.06427696 -99.34398281 30.84659059 -86.42089844 22.2746582 C-85.63585937 21.74098633 -84.85082031 21.20731445 -84.04199219 20.6574707 C-72.64429608 13.32330103 -59.49664628 8.64933367 -46.54589844 4.8996582 C-45.72758545 4.66118164 -44.90927246 4.42270508 -44.06616211 4.17700195 C-29.37405691 0.1244113 -15.13061579 -0.01850327 0 0 Z M-77.42089844 82.2746582 C-78.06285156 82.84442383 -78.70480469 83.41418945 -79.36621094 84.0012207 C-95.56495554 98.69310534 -105.40607703 123.98907304 -106.53851461 145.50982666 C-106.73858526 152.02682866 -106.71498663 158.5462714 -106.71142578 165.06567383 C-106.71741845 167.26156847 -106.72422569 169.45746101 -106.73178101 171.65335083 C-106.74937623 177.59182162 -106.75413374 183.53023468 -106.75541258 189.46872902 C-106.75683879 193.18834144 -106.76111734 196.9079394 -106.76640701 200.62754822 C-106.78393639 212.96162605 -106.79324991 225.29566894 -106.79174607 237.62975937 C-106.7916262 238.62429191 -106.7916262 238.62429191 -106.79150391 239.63891602 C-106.79142214 240.30276273 -106.79134038 240.96660944 -106.79125614 241.65057272 C-106.79044459 252.39019245 -106.80955527 263.1296715 -106.83778064 273.8692506 C-106.86664117 284.93933978 -106.87994901 296.00935729 -106.87859309 307.07948446 C-106.87808594 313.27724105 -106.88363099 319.47483837 -106.90494919 325.67256165 C-106.92448205 331.51023976 -106.92435421 337.34760916 -106.90991592 343.18529892 C-106.90784503 345.31193881 -106.91242426 347.43859879 -106.92463684 349.56520462 C-107.09451606 381.2311966 -98.96289306 408.45522364 -76.42089844 431.2746582 C-75.56625 432.23758789 -75.56625 432.23758789 -74.69433594 433.2199707 C-60.0024513 449.4187153 -34.7064836 459.2598368 -13.18572998 460.39227438 C-6.66872798 460.59234503 -0.14928524 460.5687464 6.37011719 460.56518555 C8.56601183 460.57117822 10.76190437 460.57798545 12.95779419 460.58554077 C18.89626498 460.603136 24.83467804 460.60789351 30.77317238 460.60917234 C34.4927848 460.61059855 38.21238276 460.6148771 41.93199158 460.62016678 C54.26606941 460.63769615 66.60011229 460.64700968 78.93420273 460.64550583 C79.59722442 460.64542592 80.26024612 460.64534601 80.94335938 460.64526367 C81.93912944 460.64514103 81.93912944 460.64514103 82.95501608 460.64501591 C93.69463581 460.64420436 104.43411486 460.66331503 115.17369395 460.69154041 C126.24378314 460.72040093 137.31380065 460.73370878 148.38392782 460.73235285 C154.58168441 460.73184571 160.77928173 460.73739075 166.977005 460.75870895 C172.81468312 460.77824182 178.65205252 460.77811397 184.48974228 460.76367569 C186.61638217 460.7616048 188.74304215 460.76618402 190.86964798 460.77839661 C222.53563996 460.94827583 249.759667 452.81665283 272.57910156 430.2746582 C273.22105469 429.70489258 273.86300781 429.13512695 274.52441406 428.5480957 C290.72315866 413.85621107 300.56428016 388.56024337 301.69671774 367.03948975 C301.89678839 360.52248774 301.87318976 354.00304501 301.86962891 347.48364258 C301.87562158 345.28774794 301.88242881 343.0918554 301.88998413 340.89596558 C301.90757936 334.95749479 301.91233687 329.01908173 301.9136157 323.08058739 C301.91504191 319.36097497 301.91932046 315.641377 301.92461014 311.92176819 C301.94213951 299.58769036 301.95145304 287.25364747 301.94994919 274.91955703 C301.94986928 274.25653534 301.94978937 273.59351365 301.94970703 272.91040039 C301.94958439 271.91463032 301.94958439 271.91463032 301.94945927 270.89874369 C301.94864772 260.15912395 301.96775839 249.41964491 301.99598376 238.68006581 C302.02484429 227.60997663 302.03815214 216.53995912 302.03679621 205.46983194 C302.03628907 199.27207535 302.04183411 193.07447803 302.06315231 186.87675476 C302.08268518 181.03907665 302.08255733 175.20170724 302.06811905 169.36401749 C302.06604816 167.2373776 302.07062738 165.11071761 302.08283997 162.98411179 C302.25271919 131.3181198 294.12109619 104.09409276 271.57910156 81.2746582 C271.00933594 80.63270508 270.43957031 79.99075195 269.85253906 79.3293457 C255.16065443 63.1306011 229.86468673 53.28947961 208.34393311 52.15704203 C201.8269311 51.95697138 195.30748837 51.98057001 188.78808594 51.98413086 C186.5921913 51.97813819 184.39629875 51.97133095 182.20040894 51.96377563 C176.26193815 51.94618041 170.32352508 51.9414229 164.38503075 51.94014406 C160.66541833 51.93871785 156.94582036 51.9344393 153.22621155 51.92914963 C140.89213372 51.91162025 128.55809083 51.90230673 116.22400039 51.90381058 C115.5609787 51.90389049 114.89795701 51.9039704 114.21484375 51.90405273 C113.55099704 51.9041345 112.88715033 51.90421626 112.20318705 51.9043005 C101.46356731 51.90511205 90.72408827 51.88600138 79.98450917 51.857776 C68.91441999 51.82891547 57.84440248 51.81560763 46.7742753 51.81696355 C40.57651871 51.8174707 34.37892139 51.81192565 28.18119812 51.79060745 C22.34352001 51.77107459 16.5061506 51.77120243 10.66846085 51.78564072 C8.54182096 51.78771161 6.41516097 51.78313238 4.28855515 51.7709198 C-27.37743684 51.60104058 -54.60146388 59.73266358 -77.42089844 82.2746582 Z " fill="#B24775" transform="translate(158.4208984375,-0.274658203125)"/>
<path d="M0 0 C0.7734375 0.63035156 1.546875 1.26070312 2.34375 1.91015625 C7.05563106 5.88807122 11.145956 10.19009191 15 15 C15.40089844 15.49967285 15.80179688 15.9993457 16.21484375 16.51416016 C39.15235856 45.46681702 49.26463045 80.51310747 45.3125 117.3125 C42.04737243 143.87765142 30.8419703 167.42458801 14 188 C13.36964844 188.7734375 12.73929688 189.546875 12.08984375 190.34375 C8.11192878 195.05563106 3.80990809 199.145956 -1 203 C-1.49967285 203.40089844 -1.9993457 203.80179688 -2.51416016 204.21484375 C-31.46681702 227.15235856 -66.51310747 237.26463045 -103.3125 233.3125 C-129.87765142 230.04737243 -153.42458801 218.8419703 -174 202 C-174.7734375 201.36964844 -175.546875 200.73929688 -176.34375 200.08984375 C-181.05563106 196.11192878 -185.145956 191.80990809 -189 187 C-189.40089844 186.50032715 -189.80179688 186.0006543 -190.21484375 185.48583984 C-213.15235856 156.53318298 -223.26463045 121.48689253 -219.3125 84.6875 C-216.04737243 58.12234858 -204.8419703 34.57541199 -188 14 C-187.36964844 13.2265625 -186.73929688 12.453125 -186.08984375 11.65625 C-182.11192878 6.94436894 -177.80990809 2.854044 -173 -1 C-172.25049072 -1.60134766 -172.25049072 -1.60134766 -171.48583984 -2.21484375 C-120.27366035 -42.78729039 -50.12090025 -41.02638206 0 0 Z M-147.02734375 46.61328125 C-162.75609428 65.64351209 -169.06467878 87.56489527 -167 112 C-164.66646762 130.95184808 -153.68388621 150.86356377 -139 163 C-118.66788387 177.57913526 -96.67992477 184.45240578 -71.6015625 180.375 C-52.15193005 176.46302762 -32.59529368 164.47314199 -21.49536133 148.00683594 C-8.78438768 128.45633529 -3.36927788 106.76025766 -8.03222656 83.5769043 C-12.96595717 62.9896516 -25.76203487 44.3726871 -43.65917969 33.1550293 C-77.34785024 12.68840076 -119.55113006 17.8958423 -147.02734375 46.61328125 Z " fill="#BE2F69" transform="translate(343,155)"/>
<path d="M0 0 C6.34490399 6.74238058 8.52702731 15.22295194 8.40625 24.28125 C7.55647933 33.87151895 3.35713337 41.39509769 -3.8125 47.75 C-11.03831449 53.23274521 -18.71927095 55.53389906 -27.8125 54.75 C-38.38196271 52.85862246 -45.41515621 48.57010196 -51.5625 39.75 C-56.82609994 31.3282401 -57.67676395 23.1038964 -55.6640625 13.5234375 C-52.98121068 4.7857091 -47.58736042 -2.05997941 -39.61328125 -6.46484375 C-25.81827835 -13.04616092 -11.1602015 -10.16923223 0 0 Z " fill="#A01D94" transform="translate(412.8125,102.25)"/>
</svg>
