<?xml version="1.0" encoding="UTF-8"?>
<svg version="1.1" xmlns="http://www.w3.org/2000/svg" width="512" height="512">
<path d="M0 0 C5.0725952 3.50250621 8.43352364 6.6168229 9.625 12.8125 C9.75783703 21.89523213 5.60465324 27.80630949 0 34.625 C-28.35035288 70.46242815 -39.43119009 121.43190634 -34.60351562 166.25317383 C-30.60721531 198.71759413 -19.6698237 230.22193682 -0.375 256.8125 C0.34816406 257.82054687 1.07132813 258.82859375 1.81640625 259.8671875 C30.20529677 298.1243744 72.01622288 324.22788902 118.625 333.8125 C119.35364258 333.96348145 120.08228516 334.11446289 120.83300781 334.27001953 C145.98740188 339.22078881 172.66303007 338.2263978 197.625 332.8125 C198.36862793 332.65233398 199.11225586 332.49216797 199.87841797 332.32714844 C228.11896941 326.00673992 254.40327613 311.98233211 276.79296875 293.90625 C283.34593813 289.06157195 288.60560847 287.77510778 296.625 288.8125 C300.57551579 290.09787003 303.16546107 292.34117802 306.0625 295.3125 C310.18146989 304.53899255 307.01744454 314.69388125 304.125 323.875 C303.7640625 325.05239746 303.403125 326.22979492 303.03125 327.44287109 C300.10303069 336.77275736 296.681886 345.77993915 292.60742188 354.66552734 C291.63772698 356.78468662 290.69999599 358.91585219 289.765625 361.05078125 C279.53009159 384.03803889 265.04495676 403.90863258 248.625 422.8125 C248.00109375 423.54855469 247.3771875 424.28460938 246.734375 425.04296875 C238.84747439 434.27506503 230.12685953 442.27701661 220.625 449.8125 C219.84769531 450.45703125 219.07039063 451.1015625 218.26953125 451.765625 C172.7926493 489.24406038 114.32449917 509.35960774 55.625 509.125 C54.20435242 509.12226578 54.20435242 509.12226578 52.75500488 509.11947632 C38.18609824 509.07232229 23.97985548 508.48229981 9.625 505.8125 C8.7268457 505.6568457 7.82869141 505.50119141 6.90332031 505.34082031 C-33.57641445 498.19230177 -74.22727273 480.5845203 -105.81591797 454.11132812 C-107.31874081 452.85936797 -108.84843616 451.6398824 -110.37890625 450.421875 C-126.00512143 437.72931707 -140.61600035 423.17580994 -152.375 406.8125 C-153.2387527 405.64261544 -154.10335469 404.4733575 -154.96875 403.3046875 C-177.37989563 372.77952342 -192.66291357 338.02681381 -200.1875 300.9375 C-200.38239014 299.97690674 -200.57728027 299.01631348 -200.77807617 298.02661133 C-203.84435061 282.00873964 -204.78241071 266.27875021 -204.75 250 C-204.74978851 249.01515625 -204.74957703 248.0303125 -204.74935913 247.015625 C-204.71439649 230.64184279 -203.66621906 214.89544732 -200.375 198.8125 C-200.18776367 197.87164551 -200.00052734 196.93079102 -199.80761719 195.96142578 C-195.74795082 176.07326748 -189.10539885 157.11121286 -180.375 138.8125 C-180.05418457 138.13380859 -179.73336914 137.45511719 -179.40283203 136.75585938 C-166.40102594 109.41838999 -149.06361602 85.88437812 -127.375 64.8125 C-126.56160156 63.9978125 -125.74820313 63.183125 -124.91015625 62.34375 C-97.49370368 34.96954158 -63.820768 15.59238816 -27.375 2.8125 C-26.38669189 2.45454346 -26.38669189 2.45454346 -25.37841797 2.08935547 C-16.92962945 -0.95511005 -8.72659474 -3.07046852 0 0 Z " fill="#000000" transform="translate(204.375,2.1875)"/>
</svg>
