<svg version="1.1" id="Layer_1" xmlns="http://www.w3.org/2000/svg" xmlns:xlink="http://www.w3.org/1999/xlink" x="0px" y="0px"
	 width="100%" viewBox="0 0 1091 784" enable-background="new 0 0 1091 784" xml:space="preserve">
<path fill="#E10600" opacity="1.000000" stroke="none" 
	d="
M1031.000000,785.000000 
	C687.333374,785.000000 344.166718,785.000000 1.000046,785.000000 
	C1.000031,523.666687 1.000031,262.333405 1.000015,1.000081 
	C364.666626,1.000054 728.333252,1.000054 1092.000000,1.000027 
	C1092.000000,262.333252 1092.000000,523.666504 1092.000000,784.999878 
	C1071.833374,785.000000 1051.666626,785.000000 1031.000000,785.000000 
M200.232483,357.190582 
	C198.819565,358.115021 197.406662,359.039459 195.467102,360.385010 
	C186.530090,365.808197 183.787827,374.039703 184.984238,383.927246 
	C186.079453,392.978546 191.955276,397.728058 200.052261,400.708130 
	C211.443329,404.900604 222.700058,409.456879 234.033188,413.808258 
	C247.337112,418.916260 260.661407,423.971252 274.625946,429.296783 
	C274.625946,424.737762 274.471893,420.802460 274.663025,416.884003 
	C274.931610,411.377350 272.362152,408.363983 267.236511,406.594788 
	C248.369553,400.082672 229.576736,393.355225 210.768478,386.673828 
	C205.328491,384.741333 204.446411,381.756927 208.717621,376.869324 
	C221.828613,376.872925 234.939621,376.870178 248.050613,376.885040 
	C250.963821,376.888336 254.511765,377.045593 254.672821,380.590485 
	C254.963562,386.990540 258.859711,387.128937 263.493591,386.890533 
	C265.811188,386.771271 268.142761,386.777527 270.462128,386.871674 
	C274.216919,387.024078 275.941223,385.373749 275.880280,381.552002 
	C275.774445,374.915283 275.990265,368.270538 275.744965,361.641205 
	C275.689270,360.136230 274.299866,358.680573 273.251190,357.261047 
	C273.251190,357.261047 273.035919,357.082886 272.301849,356.689819 
	C271.006866,356.463715 269.712250,356.043121 268.416809,356.040558 
	C247.504135,355.999115 226.591278,355.987366 205.678741,356.057098 
	C204.083344,356.062408 202.490158,356.730225 200.232483,357.190582 
M668.312317,357.212219 
	C667.537109,357.781219 666.761902,358.350220 665.386047,359.254150 
	C655.872681,364.139160 651.855652,371.933685 652.659302,382.547760 
	C653.405640,392.405792 659.422424,397.565277 667.962585,400.802856 
	C681.320129,405.866730 694.647766,411.009613 707.989319,416.115784 
	C719.226929,420.416748 730.466370,424.713074 742.366638,429.264526 
	C742.366638,425.360535 742.367371,422.237671 742.366455,419.114807 
	C742.363770,409.748199 741.770630,408.990997 732.922241,405.863708 
	C716.945007,400.216919 700.990906,394.504700 684.705017,388.264160 
	C682.454285,387.570038 680.203491,386.875916 677.251465,386.084534 
	C676.128113,384.734497 675.004761,383.384460 674.104614,381.649658 
	C674.029907,381.090210 673.955261,380.530762 673.901672,379.336121 
	C674.495422,378.502533 675.089172,377.668976 676.660889,376.829529 
	C691.878723,376.830902 707.096619,376.832275 722.862244,377.153290 
	C723.281006,378.090546 723.699768,379.027832 723.812500,380.507538 
	C723.914795,381.681396 724.017090,382.855255 724.174866,384.387848 
	C724.174866,384.387848 724.120728,384.746765 724.430420,385.443756 
	C729.122375,385.903503 733.806519,386.485809 738.508667,386.784088 
	C742.227783,387.019928 743.937683,385.063232 743.881104,381.293762 
	C743.783691,374.801758 743.991394,368.302429 743.759521,361.817291 
	C743.704285,360.272034 742.419128,358.770752 741.836243,357.023468 
	C741.836243,357.023468 742.062073,357.159912 741.318115,356.757629 
	C739.862671,356.507050 738.407715,356.041504 736.951721,356.038208 
	C716.027832,355.990692 695.103760,355.979462 674.179993,356.052277 
	C672.417725,356.058411 670.657837,356.729248 668.312317,357.212219 
M400.473724,429.389984 
	C400.968414,429.807312 401.457794,430.581390 401.958557,430.588776 
	C410.207855,430.711060 418.459106,430.784088 426.708344,430.706024 
	C427.477966,430.698730 428.237244,429.598358 428.924805,428.072205 
	C428.628448,422.409546 428.332092,416.746887 427.492584,410.749634 
	C426.316711,410.861145 425.140839,410.972687 423.301788,411.238403 
	C422.520752,410.874237 421.739716,410.510040 420.886597,409.290009 
	C420.591064,403.896454 420.357971,398.498444 419.977295,393.110901 
	C419.737793,389.720673 419.277161,386.346069 418.776154,382.206299 
	C419.417938,378.260529 421.638641,375.848907 425.703247,375.694550 
	C429.570587,375.547638 431.686127,377.917267 432.988831,381.335480 
	C436.945892,391.718475 441.188080,401.998322 444.909180,412.464111 
	C448.156525,421.597473 454.189545,427.393860 463.678619,428.979248 
	C473.410339,430.605194 481.242096,426.944275 487.676483,418.696136 
	C489.073486,414.586487 491.495117,410.521179 491.675049,406.358887 
	C492.212036,393.938507 491.908875,381.479950 491.860840,369.036591 
	C491.805573,354.709808 493.354034,356.125061 478.625580,356.236542 
	C476.479065,356.252777 474.343323,357.695435 472.262695,358.749908 
	C472.262695,358.749908 472.084229,358.963623 471.690918,359.697693 
	C471.483582,360.492249 471.098206,361.286194 471.095428,362.081482 
	C471.046997,375.808594 471.018250,389.536011 471.079895,403.262909 
	C471.085571,404.521942 471.734192,405.778076 472.126465,407.803864 
	C470.525024,408.963379 468.819946,411.151794 467.350159,411.003784 
	C465.760956,410.843781 463.686310,408.770844 463.037628,407.069397 
	C457.838593,393.432373 453.077179,379.627686 447.812958,366.016968 
	C446.625183,362.945953 443.992462,360.433807 441.347260,357.127289 
	C439.604523,356.752594 437.865173,356.073059 436.118530,356.053925 
	C426.494446,355.948334 416.868042,355.950500 407.243896,356.053131 
	C405.480621,356.071960 403.724091,356.724335 401.388031,357.426849 
	C400.996979,357.642212 400.605957,357.857605 399.792908,358.634674 
	C399.533508,359.747162 399.050323,360.859161 399.047852,361.972198 
	C399.001770,382.762360 398.986359,403.552765 399.064392,424.342743 
	C399.070343,425.927124 399.823425,427.508698 399.951019,429.018341 
	C399.951019,429.018341 400.024017,428.740051 400.473724,429.389984 
M633.611877,357.290070 
	C624.524536,357.290070 615.437134,357.290070 605.959534,357.290070 
	C605.959534,363.820435 605.959534,369.607605 606.618958,375.888153 
	C609.059692,376.263611 611.500366,376.639069 614.606018,377.302368 
	C615.098267,378.856232 615.590576,380.410065 615.689880,382.698090 
	C615.473816,383.657410 615.073059,384.616058 615.069458,385.576141 
	C615.021240,398.636353 614.989929,411.696991 615.076538,424.756744 
	C615.085815,426.155273 615.861450,427.548767 617.048157,429.117615 
	C622.870667,429.060822 628.693115,429.004028 635.015869,428.272186 
	C635.342285,426.674774 635.947754,425.078278 635.952759,423.479889 
	C636.016846,403.178864 636.035706,382.877350 635.926086,362.576721 
	C635.915955,360.705078 634.947205,358.838654 633.611877,357.290070 
M381.880737,377.268768 
	C381.175232,369.694702 376.731628,364.512634 370.513336,361.005035 
	C358.048523,353.973938 343.156311,356.977295 334.168182,368.116882 
	C317.720337,388.501709 301.370880,408.965942 285.665863,429.902100 
	C293.364746,430.201904 301.063263,430.513275 308.763977,430.753265 
	C309.032654,430.761658 309.323456,430.059174 310.167053,429.263397 
	C310.858337,428.862793 311.747620,428.620270 312.212067,428.038544 
	C325.470154,411.431915 338.581116,394.705475 352.064331,378.284546 
	C353.462616,376.581604 357.415588,375.531799 359.487000,376.233673 
	C361.545776,376.931274 363.915649,380.137299 364.075684,382.390594 
	C364.628387,390.172333 364.390961,398.020874 364.216064,405.838654 
	C364.139069,409.281982 362.263275,411.395935 358.507416,411.354156 
	C357.233856,411.339996 355.958038,411.529663 354.457336,411.643311 
	C354.457336,417.543579 354.457336,423.119202 354.457336,428.948181 
	C363.957764,428.948181 373.234039,428.948181 383.011688,428.273285 
	C383.334595,427.018097 383.932190,425.764252 383.938293,424.507507 
	C384.006409,410.458740 384.035919,396.409058 383.905670,382.361176 
	C383.892212,380.911133 382.780090,379.471313 381.880737,377.268768 
M509.592224,376.001953 
	C510.843292,376.330994 512.093201,376.941193 513.345581,376.946381 
	C528.810364,377.009888 544.275757,377.013184 559.740479,376.936646 
	C561.172791,376.929565 562.601868,376.270721 564.705933,375.768097 
	C565.144226,375.889709 565.582520,376.011322 566.370361,376.720490 
	C568.339050,377.454254 570.307800,378.188019 572.920654,379.071594 
	C574.985596,382.028381 577.050537,384.985199 578.911743,388.319550 
	C579.194580,388.868469 579.477417,389.417419 580.085876,390.802734 
	C581.006104,401.683655 574.344238,410.007965 563.734619,410.900696 
	C563.490601,410.873871 563.248596,410.896271 562.085632,411.149689 
	C544.720764,411.089081 527.355896,411.028473 509.721039,410.977356 
	C509.450195,410.998657 509.183350,411.048920 508.717285,411.901398 
	C508.947113,417.831787 509.176910,423.762207 509.540924,430.206329 
	C510.112213,430.459106 510.682953,430.931305 511.254913,430.932770 
	C528.798462,430.978088 546.342224,430.998291 563.885437,430.914856 
	C564.674927,430.911102 565.459717,429.904022 567.012024,429.094574 
	C591.421875,424.268768 604.421387,402.563568 596.035217,380.431366 
	C591.275208,367.869202 581.652710,360.920563 568.324707,357.148712 
	C566.583496,356.766937 564.843933,356.062988 563.100769,356.053711 
	C547.150574,355.968567 531.199524,355.970520 515.249329,356.051910 
	C513.485840,356.060883 511.725677,356.725128 509.707855,357.203949 
	C509.707855,357.203949 509.563110,356.961700 508.977753,357.540192 
	C505.529724,362.893494 506.705078,368.477753 508.447327,374.562622 
	C508.652740,374.880157 508.858154,375.197723 509.592224,376.001953 
M759.689880,359.698090 
	C759.463745,360.991394 759.043274,362.284332 759.040588,363.578094 
	C758.998840,383.801331 758.983032,404.024811 759.065735,424.247803 
	C759.072144,425.815033 759.857971,427.379059 761.048401,429.117706 
	C766.629944,429.117706 772.211548,429.117706 778.210388,429.117706 
	C778.210388,420.987762 778.298645,413.348724 778.168518,405.713379 
	C778.113647,402.492554 779.334290,401.219757 782.575562,401.326050 
	C787.567444,401.489807 792.592590,401.074249 797.555969,401.483185 
	C799.985657,401.683380 802.768250,402.645020 804.597168,404.197418 
	C811.574036,410.119080 818.783997,415.923492 824.859070,422.709686 
	C832.156372,430.861298 840.881775,429.692169 850.367188,428.931610 
	C850.367188,424.342133 850.185364,420.028900 850.422974,415.738861 
	C850.624023,412.108551 849.042542,411.375458 845.714722,411.246521 
	C842.171021,411.109222 838.062927,410.886810 835.275696,409.061188 
	C830.171631,405.718079 825.794800,401.237732 821.240479,397.093384 
	C818.937744,394.997864 818.459045,392.218781 820.914490,390.094299 
	C829.168274,382.953033 836.098511,373.147797 849.212769,375.131744 
	C849.441589,375.166412 849.733276,374.785339 849.953857,374.628082 
	C849.953857,369.001373 849.953857,363.420380 849.953857,357.373566 
	C846.410095,357.373566 843.240234,357.674866 840.149963,357.307159 
	C834.704163,356.659180 830.682861,358.699615 826.835388,362.431244 
	C819.789001,369.265503 812.400940,375.751984 805.043457,382.256866 
	C803.639038,383.498505 801.718140,384.155914 799.301819,384.689850 
	C795.012451,384.459167 790.725525,384.135559 786.433044,384.020142 
	C780.368469,383.857056 780.047058,383.613708 780.007324,377.389832 
	C779.975525,372.402832 780.221130,367.399933 779.877014,362.436432 
	C779.748657,360.585663 778.296997,358.826691 776.616882,357.284882 
	C773.515198,357.314453 770.395630,357.150970 767.317444,357.434967 
	C764.879578,357.659943 762.492493,358.433838 759.689880,359.698090 
M202.514481,425.052979 
	C202.514481,420.643951 202.514481,416.234924 202.514481,411.747192 
	C196.236801,411.747192 190.696320,411.747192 185.049149,411.747192 
	C185.049149,417.696808 185.049149,423.270721 185.049149,429.327972 
	C190.240082,429.327972 195.196350,429.488831 200.122528,429.175995 
	C200.983551,429.121307 201.718033,427.074127 202.514481,425.052979 
M652.373535,424.211945 
	C652.373535,425.694977 652.373535,427.178040 652.373535,429.014801 
	C658.324280,429.014801 664.031616,429.014801 669.814026,429.014801 
	C669.814026,423.086578 669.814026,417.510681 669.814026,411.858398 
	C663.856567,411.858398 658.186707,411.858398 652.373596,411.858398 
	C652.373596,415.991394 652.373596,419.640442 652.373535,424.211945 
M908.207275,370.928497 
	C908.206970,367.768585 908.447632,364.581635 908.098022,361.460846 
	C907.938660,360.038574 906.362732,357.516235 905.862244,357.618164 
	C904.098755,357.977417 901.922974,358.868408 901.010803,360.275482 
	C899.495361,362.613129 898.837158,365.506531 897.762268,368.310944 
	C893.786865,364.639587 896.416199,354.393402 886.371460,358.149261 
	C886.371460,362.998932 886.276367,367.657013 886.447327,372.305328 
	C886.483887,373.301270 887.484131,374.261810 888.040466,375.238647 
	C888.757629,374.324188 889.976868,373.469177 890.093445,372.483673 
	C890.389648,369.981201 890.191956,367.420258 890.191956,364.882721 
	C890.650452,364.818359 891.109009,364.753998 891.567505,364.689636 
	C892.501038,367.257782 893.271729,369.903320 894.439331,372.360199 
	C894.992554,373.524261 896.304626,374.327698 897.272888,375.294525 
	C898.218140,374.339600 899.499084,373.543396 900.040894,372.397644 
	C901.278931,369.779602 902.155457,366.990540 903.178772,364.270935 
	C904.372803,366.840607 904.213867,369.237183 904.437805,371.597443 
	C904.555420,372.837463 905.343445,374.013916 905.828735,375.219055 
	C906.621277,374.065094 907.413818,372.911133 908.207275,370.928497 
M873.792908,366.365875 
	C873.796204,368.361969 873.818237,370.358276 873.798706,372.354156 
	C873.765747,375.718628 875.409302,375.781952 878.125732,374.491058 
	C878.125732,369.983765 878.125732,365.552002 878.125732,361.139313 
	C878.931152,361.008270 879.478943,361.044220 879.894897,360.827271 
	C880.997498,360.252136 882.043030,359.567688 883.111267,358.926666 
	C882.055725,358.409821 881.031616,357.545715 879.938171,357.446625 
	C877.463379,357.222290 874.934814,357.188934 872.466675,357.446777 
	C871.049866,357.594818 869.708496,358.464020 868.333130,359.008545 
	C869.619202,359.641937 870.900635,360.284821 872.193848,360.903381 
	C872.628174,361.111176 873.092102,361.257141 873.793518,361.528442 
	C873.793518,362.807861 873.793518,364.109924 873.792908,366.365875 
z"/>
<path fill="#040000" opacity="1.000000" stroke="none" 
	d="
M428.035767,411.084229 
	C428.332092,416.746887 428.628448,422.409546 428.512451,428.680664 
	C418.741425,429.106079 409.382721,428.923065 400.024017,428.740051 
	C400.024017,428.740051 399.951019,429.018341 400.148560,428.630737 
	C400.302399,404.853058 400.258636,381.463013 400.214905,358.072968 
	C400.605957,357.857605 400.996979,357.642212 402.141968,357.332123 
	C415.938904,357.379730 428.981873,357.522064 442.024872,357.664368 
	C443.992462,360.433807 446.625183,362.945953 447.812958,366.016968 
	C453.077179,379.627686 457.838593,393.432373 463.037628,407.069397 
	C463.686310,408.770844 465.760956,410.843781 467.350159,411.003784 
	C468.819946,411.151794 470.525024,408.963379 472.181946,406.953979 
	C472.186371,390.390594 472.135284,374.677124 472.084229,358.963623 
	C472.084229,358.963623 472.262695,358.749908 472.636047,358.370911 
	C476.981567,357.818634 480.968964,357.805115 484.921631,357.427704 
	C488.958557,357.042236 490.436401,358.350800 490.352478,362.644989 
	C490.088837,376.130066 490.549438,389.633087 490.112091,403.109131 
	C489.939178,408.437683 488.140228,413.713531 487.081665,419.013367 
	C481.242096,426.944275 473.410339,430.605194 463.678619,428.979248 
	C454.189545,427.393860 448.156525,421.597473 444.909180,412.464111 
	C441.188080,401.998322 436.945892,391.718475 432.988831,381.335480 
	C431.686127,377.917267 429.570587,375.547638 425.703247,375.694550 
	C421.638641,375.848907 419.417938,378.260529 418.769348,383.051086 
	C418.747253,390.559631 418.554382,397.230499 418.820343,403.882965 
	C418.904816,405.995728 420.211365,408.059631 420.958679,410.145874 
	C421.739716,410.510040 422.520752,410.874237 424.036316,411.237488 
	C425.859161,411.185791 426.947479,411.135010 428.035767,411.084229 
z"/>
<path fill="#050000" opacity="1.000000" stroke="none" 
	d="
M800.035522,385.082886 
	C801.718140,384.155914 803.639038,383.498505 805.043457,382.256866 
	C812.400940,375.751984 819.789001,369.265503 826.835388,362.431244 
	C830.682861,358.699615 834.704163,356.659180 840.149963,357.307159 
	C843.240234,357.674866 846.410095,357.373566 849.953857,357.373566 
	C849.953857,363.420380 849.953857,369.001373 849.953857,374.628082 
	C849.733276,374.785339 849.441589,375.166412 849.212769,375.131744 
	C836.098511,373.147797 829.168274,382.953033 820.914490,390.094299 
	C818.459045,392.218781 818.937744,394.997864 821.240479,397.093384 
	C825.794800,401.237732 830.171631,405.718079 835.275696,409.061188 
	C838.062927,410.886810 842.171021,411.109222 845.714722,411.246521 
	C849.042542,411.375458 850.624023,412.108551 850.422974,415.738861 
	C850.185364,420.028900 850.367188,424.342133 850.367188,428.931610 
	C840.881775,429.692169 832.156372,430.861298 824.859070,422.709686 
	C818.783997,415.923492 811.574036,410.119080 804.597168,404.197418 
	C802.768250,402.645020 799.985657,401.683380 797.555969,401.483185 
	C792.592590,401.074249 787.567444,401.489807 782.575562,401.326050 
	C779.334290,401.219757 778.113647,402.492554 778.168518,405.713379 
	C778.298645,413.348724 778.210388,420.987762 778.210388,429.117706 
	C772.211548,429.117706 766.629944,429.117706 760.665527,428.565979 
	C760.216064,404.997498 760.149414,381.980713 760.082825,358.963928 
	C762.492493,358.433838 764.879578,357.659943 767.317444,357.434967 
	C770.395630,357.150970 773.515198,357.314453 777.280823,357.576782 
	C778.062683,365.612915 778.245911,373.356995 778.263977,381.101501 
	C778.270508,383.917389 779.103943,385.411835 782.223938,385.311981 
	C788.157471,385.122131 794.097961,385.147125 800.035522,385.082886 
z"/>
<path fill="#040000" opacity="1.000000" stroke="none" 
	d="
M563.979980,410.927887 
	C574.344238,410.007965 581.006104,401.683655 579.937805,390.105927 
	C579.565002,388.920074 579.340210,388.431030 579.115479,387.941986 
	C577.050537,384.985199 574.985596,382.028381 572.384277,378.720398 
	C569.905518,377.623810 567.963135,376.878387 566.020813,376.132965 
	C565.582520,376.011322 565.144226,375.889709 563.971252,375.727905 
	C545.178894,375.630219 527.121216,375.572754 509.063568,375.515259 
	C508.858154,375.197723 508.652740,374.880157 508.438324,373.930359 
	C508.807251,367.852631 509.185181,362.407166 509.563110,356.961700 
	C509.563110,356.961700 509.707855,357.203949 510.301636,357.221558 
	C530.250488,357.400146 549.605591,357.561066 568.960693,357.722015 
	C581.652710,360.920563 591.275208,367.869202 596.035217,380.431366 
	C604.421387,402.563568 591.421875,424.268768 566.210876,429.201752 
	C546.742065,429.436798 528.074402,429.564697 509.406708,429.692596 
	C509.176910,423.762207 508.947113,417.831787 509.091156,411.501801 
	C509.640320,411.057465 509.815643,411.012695 509.990997,410.967896 
	C527.355896,411.028473 544.720764,411.089081 562.792236,411.103516 
	C563.498901,411.057343 563.979980,410.927887 563.979980,410.927887 
z"/>
<path fill="#040000" opacity="1.000000" stroke="none" 
	d="
M724.118530,379.965088 
	C723.699768,379.027832 723.281006,378.090546 722.330688,376.688416 
	C720.531677,375.905334 719.265808,375.317566 717.996582,375.310516 
	C705.396729,375.240387 692.795837,375.213623 680.196777,375.334290 
	C678.687500,375.348724 677.187317,376.311920 675.682922,376.835388 
	C675.089172,377.668976 674.495422,378.502533 673.777832,379.842590 
	C673.729797,380.910828 673.805603,381.472656 673.881348,382.034454 
	C675.004761,383.384460 676.128113,384.734497 677.861572,386.352722 
	C680.656799,387.353882 682.841919,388.086823 685.027100,388.819763 
	C700.990906,394.504700 716.945007,400.216919 732.922241,405.863708 
	C741.770630,408.990997 742.363770,409.748199 742.366455,419.114807 
	C742.367371,422.237671 742.366638,425.360535 742.366638,429.264526 
	C730.466370,424.713074 719.226929,420.416748 707.989319,416.115784 
	C694.647766,411.009613 681.320129,405.866730 667.962585,400.802856 
	C659.422424,397.565277 653.405640,392.405792 652.659302,382.547760 
	C651.855652,371.933685 655.872681,364.139160 666.015259,359.075256 
	C667.442200,358.549194 668.239990,358.202057 669.452393,357.817108 
	C672.345276,357.614532 674.823181,357.315033 677.302063,357.306061 
	C698.888611,357.227814 720.475403,357.201599 742.062073,357.159912 
	C742.062073,357.159912 741.836243,357.023468 741.916626,357.568329 
	C742.055420,366.035919 742.211731,373.960449 742.067383,381.879456 
	C742.045532,383.077850 740.640869,385.259033 739.847534,385.272125 
	C734.609558,385.358551 729.363892,384.976288 724.120728,384.746765 
	C724.120728,384.746765 724.174866,384.387848 724.270935,383.936737 
	C724.284180,382.312103 724.201416,381.138611 724.118530,379.965088 
z"/>
<path fill="#050000" opacity="1.000000" stroke="none" 
	d="
M207.747955,376.872345 
	C204.446411,381.756927 205.328491,384.741333 210.768478,386.673828 
	C229.576736,393.355225 248.369553,400.082672 267.236511,406.594788 
	C272.362152,408.363983 274.931610,411.377350 274.663025,416.884003 
	C274.471893,420.802460 274.625946,424.737762 274.625946,429.296783 
	C260.661407,423.971252 247.337112,418.916260 234.033188,413.808258 
	C222.700058,409.456879 211.443329,404.900604 200.052261,400.708130 
	C191.955276,397.728058 186.079453,392.978546 184.984238,383.927246 
	C183.787827,374.039703 186.530090,365.808197 196.068237,360.117737 
	C198.108521,359.189911 199.547699,358.529388 201.404358,357.827087 
	C204.300888,357.617859 206.779251,357.316101 209.259033,357.304047 
	C230.517853,357.200592 251.776917,357.149567 273.035919,357.082886 
	C273.035919,357.082886 273.251190,357.261047 273.626434,357.636749 
	C274.111053,366.131256 274.304749,374.250916 274.224426,382.367859 
	C274.214233,383.397003 272.816315,385.248322 271.980469,385.295807 
	C267.059845,385.575500 262.115204,385.433441 257.306519,385.433441 
	C255.770508,375.497040 255.486526,375.261017 245.714386,375.259583 
	C235.063004,375.258026 224.410416,375.177521 213.761307,375.332855 
	C211.749802,375.362183 209.752060,376.334930 207.747955,376.872345 
z"/>
<path fill="#040000" opacity="1.000000" stroke="none" 
	d="
M284.980377,429.397034 
	C301.370880,408.965942 317.720337,388.501709 334.168182,368.116882 
	C343.156311,356.977295 358.048523,353.973938 370.513336,361.005035 
	C376.731628,364.512634 381.175232,369.694702 382.006622,378.060120 
	C382.258453,395.550385 382.384369,412.249268 382.510284,428.948181 
	C373.234039,428.948181 363.957764,428.948181 354.457336,428.948181 
	C354.457336,423.119202 354.457336,417.543579 354.457336,411.643311 
	C355.958038,411.529663 357.233856,411.339996 358.507416,411.354156 
	C362.263275,411.395935 364.139069,409.281982 364.216064,405.838654 
	C364.390961,398.020874 364.628387,390.172333 364.075684,382.390594 
	C363.915649,380.137299 361.545776,376.931274 359.487000,376.233673 
	C357.415588,375.531799 353.462616,376.581604 352.064331,378.284546 
	C338.581116,394.705475 325.470154,411.431915 312.212067,428.038544 
	C311.747620,428.620270 310.858337,428.862793 309.448700,429.395874 
	C300.813690,429.484558 292.897034,429.440796 284.980377,429.397034 
z"/>
<path fill="#050000" opacity="1.000000" stroke="none" 
	d="
M616.082825,381.963928 
	C615.590576,380.410065 615.098267,378.856232 614.013489,376.840515 
	C610.933838,376.050720 608.446655,375.722717 605.959534,375.394745 
	C605.959534,369.607605 605.959534,363.820435 605.959534,357.290070 
	C615.437134,357.290070 624.524536,357.290070 634.039429,357.603485 
	C634.483215,381.593689 634.499451,405.270447 634.515625,428.947235 
	C628.693115,429.004028 622.870667,429.060822 616.665405,428.565948 
	C616.216064,412.664154 616.149414,397.314056 616.082825,381.963928 
z"/>
<path fill="#050000" opacity="1.000000" stroke="none" 
	d="
M202.512726,425.500061 
	C201.718033,427.074127 200.983551,429.121307 200.122528,429.175995 
	C195.196350,429.488831 190.240082,429.327972 185.049149,429.327972 
	C185.049149,423.270721 185.049149,417.696808 185.049149,411.747192 
	C190.696320,411.747192 196.236801,411.747192 202.514481,411.747192 
	C202.514481,416.234924 202.514481,420.643951 202.512726,425.500061 
z"/>
<path fill="#050000" opacity="1.000000" stroke="none" 
	d="
M652.373535,423.750732 
	C652.373596,419.640442 652.373596,415.991394 652.373596,411.858398 
	C658.186707,411.858398 663.856567,411.858398 669.814026,411.858398 
	C669.814026,417.510681 669.814026,423.086578 669.814026,429.014801 
	C664.031616,429.014801 658.324280,429.014801 652.373535,429.014801 
	C652.373535,427.178040 652.373535,425.694977 652.373535,423.750732 
z"/>
<path fill="#050000" opacity="1.000000" stroke="none" 
	d="
M908.206787,371.342834 
	C907.413818,372.911133 906.621277,374.065094 905.828735,375.219055 
	C905.343445,374.013916 904.555420,372.837463 904.437805,371.597443 
	C904.213867,369.237183 904.372803,366.840607 903.178772,364.270935 
	C902.155457,366.990540 901.278931,369.779602 900.040894,372.397644 
	C899.499084,373.543396 898.218140,374.339600 897.272888,375.294525 
	C896.304626,374.327698 894.992554,373.524261 894.439331,372.360199 
	C893.271729,369.903320 892.501038,367.257782 891.567505,364.689636 
	C891.109009,364.753998 890.650452,364.818359 890.191956,364.882721 
	C890.191956,367.420258 890.389648,369.981201 890.093445,372.483673 
	C889.976868,373.469177 888.757629,374.324188 888.040466,375.238647 
	C887.484131,374.261810 886.483887,373.301270 886.447327,372.305328 
	C886.276367,367.657013 886.371460,362.998932 886.371460,358.149261 
	C896.416199,354.393402 893.786865,364.639587 897.762268,368.310944 
	C898.837158,365.506531 899.495361,362.613129 901.010803,360.275482 
	C901.922974,358.868408 904.098755,357.977417 905.862244,357.618164 
	C906.362732,357.516235 907.938660,360.038574 908.098022,361.460846 
	C908.447632,364.581635 908.206970,367.768585 908.206787,371.342834 
z"/>
<path fill="#C60500" opacity="1.000000" stroke="none" 
	d="
M208.232788,376.870850 
	C209.752060,376.334930 211.749802,375.362183 213.761307,375.332855 
	C224.410416,375.177521 235.063004,375.258026 245.714386,375.259583 
	C255.486526,375.261017 255.770508,375.497040 257.306519,385.433441 
	C262.115204,385.433441 267.059845,385.575500 271.980469,385.295807 
	C272.816315,385.248322 274.214233,383.397003 274.224426,382.367859 
	C274.304749,374.250916 274.111053,366.131256 273.763000,357.607330 
	C274.299866,358.680573 275.689270,360.136230 275.744965,361.641205 
	C275.990265,368.270538 275.774445,374.915283 275.880280,381.552002 
	C275.941223,385.373749 274.216919,387.024078 270.462128,386.871674 
	C268.142761,386.777527 265.811188,386.771271 263.493591,386.890533 
	C258.859711,387.128937 254.963562,386.990540 254.672821,380.590485 
	C254.511765,377.045593 250.963821,376.888336 248.050613,376.885040 
	C234.939621,376.870178 221.828613,376.872925 208.232788,376.870850 
z"/>
<path fill="#C60500" opacity="1.000000" stroke="none" 
	d="
M487.379089,418.854736 
	C488.140228,413.713531 489.939178,408.437683 490.112091,403.109131 
	C490.549438,389.633087 490.088837,376.130066 490.352478,362.644989 
	C490.436401,358.350800 488.958557,357.042236 484.921631,357.427704 
	C480.968964,357.805115 476.981567,357.818634 472.606018,358.234985 
	C474.343323,357.695435 476.479065,356.252777 478.625580,356.236542 
	C493.354034,356.125061 491.805573,354.709808 491.860840,369.036591 
	C491.908875,381.479950 492.212036,393.938507 491.675049,406.358887 
	C491.495117,410.521179 489.073486,414.586487 487.379089,418.854736 
z"/>
<path fill="#FE0600" opacity="1.000000" stroke="none" 
	d="
M400.003906,358.353821 
	C400.258636,381.463013 400.302399,404.853058 400.287659,428.667358 
	C399.823425,427.508698 399.070343,425.927124 399.064392,424.342743 
	C398.986359,403.552765 399.001770,382.762360 399.047852,361.972198 
	C399.050323,360.859161 399.533508,359.747162 400.003906,358.353821 
z"/>
<path fill="#050000" opacity="1.000000" stroke="none" 
	d="
M873.793213,365.888916 
	C873.793518,364.109924 873.793518,362.807861 873.793518,361.528442 
	C873.092102,361.257141 872.628174,361.111176 872.193848,360.903381 
	C870.900635,360.284821 869.619202,359.641937 868.333130,359.008545 
	C869.708496,358.464020 871.049866,357.594818 872.466675,357.446777 
	C874.934814,357.188934 877.463379,357.222290 879.938171,357.446625 
	C881.031616,357.545715 882.055725,358.409821 883.111267,358.926697 
	C882.043030,359.567688 880.997498,360.252136 879.894897,360.827271 
	C879.478943,361.044220 878.931152,361.008270 878.125732,361.139313 
	C878.125732,365.552002 878.125732,369.983765 878.125732,374.491058 
	C875.409302,375.781952 873.765747,375.718628 873.798706,372.354156 
	C873.818237,370.358276 873.796204,368.361969 873.793213,365.888916 
z"/>
<path fill="#FE0600" opacity="1.000000" stroke="none" 
	d="
M509.327881,375.758606 
	C527.121216,375.572754 545.178894,375.630219 563.634521,375.801086 
	C562.601868,376.270721 561.172791,376.929565 559.740479,376.936646 
	C544.275757,377.013184 528.810364,377.009888 513.345581,376.946381 
	C512.093201,376.941193 510.843292,376.330994 509.327881,375.758606 
z"/>
<path fill="#C60500" opacity="1.000000" stroke="none" 
	d="
M724.275574,385.095276 
	C729.363892,384.976288 734.609558,385.358551 739.847534,385.272125 
	C740.640869,385.259033 742.045532,383.077850 742.067383,381.879456 
	C742.211731,373.960449 742.055420,366.035919 741.848389,357.681213 
	C742.419128,358.770752 743.704285,360.272034 743.759521,361.817291 
	C743.991394,368.302429 743.783691,374.801758 743.881104,381.293762 
	C743.937683,385.063232 742.227783,387.019928 738.508667,386.784088 
	C733.806519,386.485809 729.122375,385.903503 724.275574,385.095276 
z"/>
<path fill="#C60500" opacity="1.000000" stroke="none" 
	d="
M676.171875,376.832458 
	C677.187317,376.311920 678.687500,375.348724 680.196777,375.334290 
	C692.795837,375.213623 705.396729,375.240387 717.996582,375.310516 
	C719.265808,375.317566 720.531677,375.905334 722.056763,376.528625 
	C707.096619,376.832275 691.878723,376.830902 676.171875,376.832458 
z"/>
<path fill="#FE0600" opacity="1.000000" stroke="none" 
	d="
M741.690063,356.958771 
	C720.475403,357.201599 698.888611,357.227814 677.302063,357.306061 
	C674.823181,357.315033 672.345276,357.614532 669.422852,357.625122 
	C668.978821,357.470947 668.896851,357.091309 668.896851,357.091309 
	C670.657837,356.729248 672.417725,356.058411 674.179993,356.052277 
	C695.103760,355.979462 716.027832,355.990692 736.951721,356.038208 
	C738.407715,356.041504 739.862671,356.507050 741.690063,356.958771 
z"/>
<path fill="#FE0600" opacity="1.000000" stroke="none" 
	d="
M272.668884,356.886353 
	C251.776917,357.149567 230.517853,357.200592 209.259033,357.304047 
	C206.779251,357.316101 204.300888,357.617859 201.386108,357.631897 
	C200.950333,357.478455 200.895935,357.090088 200.895935,357.090088 
	C202.490158,356.730225 204.083344,356.062408 205.678741,356.057098 
	C226.591278,355.987366 247.504135,355.999115 268.416809,356.040558 
	C269.712250,356.043121 271.006866,356.463715 272.668884,356.886353 
z"/>
<path fill="#FE0600" opacity="1.000000" stroke="none" 
	d="
M799.668701,384.886353 
	C794.097961,385.147125 788.157471,385.122131 782.223938,385.311981 
	C779.103943,385.411835 778.270508,383.917389 778.263977,381.101501 
	C778.245911,373.356995 778.062683,365.612915 777.696777,357.447266 
	C778.296997,358.826691 779.748657,360.585663 779.877014,362.436432 
	C780.221130,367.399933 779.975525,372.402832 780.007324,377.389832 
	C780.047058,383.613708 780.368469,383.857056 786.433044,384.020142 
	C790.725525,384.135559 795.012451,384.459167 799.668701,384.886353 
z"/>
<path fill="#FE0600" opacity="1.000000" stroke="none" 
	d="
M634.765747,428.609711 
	C634.499451,405.270447 634.483215,381.593689 634.445251,357.443359 
	C634.947205,358.838654 635.915955,360.705078 635.926086,362.576721 
	C636.035706,382.877350 636.016846,403.178864 635.952759,423.479889 
	C635.947754,425.078278 635.342285,426.674774 634.765747,428.609711 
z"/>
<path fill="#FE0600" opacity="1.000000" stroke="none" 
	d="
M759.886353,359.330994 
	C760.149414,381.980713 760.216064,404.997498 760.282104,428.479431 
	C759.857971,427.379059 759.072144,425.815033 759.065735,424.247803 
	C758.983032,404.024811 758.998840,383.801331 759.040588,363.578094 
	C759.043274,362.284332 759.463745,360.991394 759.886353,359.330994 
z"/>
<path fill="#FE0600" opacity="1.000000" stroke="none" 
	d="
M509.473816,429.949463 
	C528.074402,429.564697 546.742065,429.436798 565.828247,429.336609 
	C565.459717,429.904022 564.674927,430.911102 563.885437,430.914856 
	C546.342224,430.998291 528.798462,430.978088 511.254913,430.932770 
	C510.682953,430.931305 510.112213,430.459106 509.473816,429.949463 
z"/>
<path fill="#FE0600" opacity="1.000000" stroke="none" 
	d="
M568.642700,357.435364 
	C549.605591,357.561066 530.250488,357.400146 510.429688,357.162354 
	C511.725677,356.725128 513.485840,356.060883 515.249329,356.051910 
	C531.199524,355.970520 547.150574,355.968567 563.100769,356.053711 
	C564.843933,356.062988 566.583496,356.766937 568.642700,357.435364 
z"/>
<path fill="#FE0600" opacity="1.000000" stroke="none" 
	d="
M400.248871,429.065002 
	C409.382721,428.923065 418.741425,429.106079 428.550720,429.147308 
	C428.237244,429.598358 427.477966,430.698730 426.708344,430.706024 
	C418.459106,430.784088 410.207855,430.711060 401.958557,430.588776 
	C401.457794,430.581390 400.968414,429.807312 400.248871,429.065002 
z"/>
<path fill="#FE0600" opacity="1.000000" stroke="none" 
	d="
M382.760986,428.610718 
	C382.384369,412.249268 382.258453,395.550385 382.155121,378.439117 
	C382.780090,379.471313 383.892212,380.911133 383.905670,382.361176 
	C384.035919,396.409058 384.006409,410.458740 383.938293,424.507507 
	C383.932190,425.764252 383.334595,427.018097 382.760986,428.610718 
z"/>
<path fill="#FE0600" opacity="1.000000" stroke="none" 
	d="
M471.887573,359.330658 
	C472.135284,374.677124 472.186371,390.390594 472.160828,406.569824 
	C471.734192,405.778076 471.085571,404.521942 471.079895,403.262909 
	C471.018250,389.536011 471.046997,375.808594 471.095428,362.081482 
	C471.098206,361.286194 471.483582,360.492249 471.887573,359.330658 
z"/>
<path fill="#FE0600" opacity="1.000000" stroke="none" 
	d="
M615.886353,382.330994 
	C616.149414,397.314056 616.216064,412.664154 616.282104,428.479431 
	C615.861450,427.548767 615.085815,426.155273 615.076538,424.756744 
	C614.989929,411.696991 615.021240,398.636353 615.069458,385.576141 
	C615.073059,384.616058 615.473816,383.657410 615.886353,382.330994 
z"/>
<path fill="#FE0600" opacity="1.000000" stroke="none" 
	d="
M441.686066,357.395813 
	C428.981873,357.522064 415.938904,357.379730 402.430176,357.160828 
	C403.724091,356.724335 405.480621,356.071960 407.243896,356.053131 
	C416.868042,355.950500 426.494446,355.948334 436.118530,356.053925 
	C437.865173,356.073059 439.604523,356.752594 441.686066,357.395813 
z"/>
<path fill="#FE0600" opacity="1.000000" stroke="none" 
	d="
M509.270447,357.250946 
	C509.185181,362.407166 508.807251,367.852631 508.290466,373.686829 
	C506.705078,368.477753 505.529724,362.893494 509.270447,357.250946 
z"/>
<path fill="#FE0600" opacity="1.000000" stroke="none" 
	d="
M420.922638,409.717957 
	C420.211365,408.059631 418.904816,405.995728 418.820343,403.882965 
	C418.554382,397.230499 418.747253,390.559631 418.839142,383.430176 
	C419.277161,386.346069 419.737793,389.720673 419.977295,393.110901 
	C420.357971,398.498444 420.591064,403.896454 420.922638,409.717957 
z"/>
<path fill="#FE0600" opacity="1.000000" stroke="none" 
	d="
M285.323120,429.649567 
	C292.897034,429.440796 300.813690,429.484558 309.167145,429.608154 
	C309.323456,430.059174 309.032654,430.761658 308.763977,430.753265 
	C301.063263,430.513275 293.364746,430.201904 285.323120,429.649567 
z"/>
<path fill="#C60500" opacity="1.000000" stroke="none" 
	d="
M684.866089,388.541962 
	C682.841919,388.086823 680.656799,387.353882 678.212158,386.401367 
	C680.203491,386.875916 682.454285,387.570038 684.866089,388.541962 
z"/>
<path fill="#C60500" opacity="1.000000" stroke="none" 
	d="
M200.564209,357.140320 
	C200.895935,357.090088 200.950333,357.478455 200.968597,357.673645 
	C199.547699,358.529388 198.108521,359.189911 196.331558,359.907166 
	C197.406662,359.039459 198.819565,358.115021 200.564209,357.140320 
z"/>
<path fill="#FE0600" opacity="1.000000" stroke="none" 
	d="
M566.195557,376.426727 
	C567.963135,376.878387 569.905518,377.623810 572.062134,378.645508 
	C570.307800,378.188019 568.339050,377.454254 566.195557,376.426727 
z"/>
<path fill="#C60500" opacity="1.000000" stroke="none" 
	d="
M723.965576,380.236328 
	C724.201416,381.138611 724.284180,382.312103 724.243164,383.757385 
	C724.017090,382.855255 723.914795,381.681396 723.965576,380.236328 
z"/>
<path fill="#FE0600" opacity="1.000000" stroke="none" 
	d="
M606.289246,375.641449 
	C608.446655,375.722717 610.933838,376.050720 613.681030,376.696594 
	C611.500366,376.639069 609.059692,376.263611 606.289246,375.641449 
z"/>
<path fill="#C60500" opacity="1.000000" stroke="none" 
	d="
M668.604614,357.151764 
	C668.896851,357.091309 668.978821,357.470947 669.008301,357.662903 
	C668.239990,358.202057 667.442200,358.549194 666.315552,358.907776 
	C666.761902,358.350220 667.537109,357.781219 668.604614,357.151764 
z"/>
<path fill="#FE0600" opacity="1.000000" stroke="none" 
	d="
M579.013611,388.130768 
	C579.340210,388.431030 579.565002,388.920074 579.775024,389.687744 
	C579.477417,389.417419 579.194580,388.868469 579.013611,388.130768 
z"/>
<path fill="#FE0600" opacity="1.000000" stroke="none" 
	d="
M427.764160,410.916931 
	C426.947479,411.135010 425.859161,411.185791 424.367920,411.160400 
	C425.140839,410.972687 426.316711,410.861145 427.764160,410.916931 
z"/>
<path fill="#C60500" opacity="1.000000" stroke="none" 
	d="
M673.992981,381.842041 
	C673.805603,381.472656 673.729797,380.910828 673.767334,380.160156 
	C673.955261,380.530762 674.029907,381.090210 673.992981,381.842041 
z"/>
<path fill="#FE0600" opacity="1.000000" stroke="none" 
	d="
M509.856018,410.972626 
	C509.815643,411.012695 509.640320,411.057465 509.192810,411.115204 
	C509.183350,411.048920 509.450195,410.998657 509.856018,410.972626 
z"/>
<path fill="#FE0600" opacity="1.000000" stroke="none" 
	d="
M563.857300,410.914307 
	C563.979980,410.927887 563.498901,411.057343 563.253784,411.012634 
	C563.248596,410.896271 563.490601,410.873871 563.857300,410.914307 
z"/>
</svg>