<?xml version="1.0" encoding="UTF-8"?>
<svg version="1.1" xmlns="http://www.w3.org/2000/svg" width="512" height="512">
<path d="M0 0 C3.65468642 0.00564362 7.3093682 0.008462 10.96405792 0.0110817 C44.81368547 0.04635398 78.54411143 0.28886188 112.29944611 3.05511856 C115.83614189 3.34237507 119.37380084 3.61505873 122.91175079 3.88641739 C130.58104494 4.47907531 138.24684699 5.10877554 145.91175079 5.75555801 C147.08501923 5.85275131 148.25828766 5.94994461 149.46710968 6.05008316 C184.74413852 9.02746114 184.74413852 9.02746114 199.41175079 16.50555801 C200.59523102 17.09083267 200.59523102 17.09083267 201.80261993 17.68793106 C219.04193013 26.47248391 231.97217087 39.69343765 241.53675079 56.31805801 C242.02788361 57.1469252 242.51901642 57.97579239 243.02503204 58.82977676 C251.55396857 74.38254336 253.02845627 91.98748459 254.53675079 109.31805801 C254.61345001 110.19363358 254.69014923 111.06920914 254.76917267 111.97131729 C255.40501002 119.27233841 256.00783208 126.57581762 256.59925079 133.88055801 C256.68151917 134.88076981 256.76378754 135.8809816 256.84854889 136.91150284 C257.48344174 144.70920153 258.03506366 152.51068184 258.53675079 160.31805801 C258.58146767 161.01067482 258.62618454 161.70329163 258.67225647 162.41689682 C260.51917063 191.32864609 260.8532304 220.19117597 260.79749298 249.15594864 C260.7860995 255.12165468 260.79288812 261.08718221 260.80436802 267.05288219 C260.85090221 295.5321522 260.37183092 323.89461864 258.53675079 352.31805801 C258.45406952 353.60476395 258.37138824 354.89146988 258.28620148 356.2171669 C257.78898375 363.73557904 257.2169052 371.24616883 256.59925079 378.75555801 C256.5127124 379.82441238 256.42617401 380.89326675 256.33701324 381.99451065 C255.76001259 389.10441819 255.15923233 396.21199323 254.53675079 403.31805801 C254.43523712 404.48446823 254.43523712 404.48446823 254.33167267 405.67444229 C251.5983664 436.79133774 243.31233914 463.38873949 218.53675079 484.31805801 C191.54856392 505.07281418 159.49716624 505.7550461 126.97425079 508.38055801 C125.97431091 508.46273575 124.97437103 508.54491348 123.94412994 508.62958145 C116.14615627 509.26455692 108.3444826 509.81742699 100.53675079 510.31805801 C99.84192471 510.3626276 99.14709862 510.40719719 98.43121719 510.45311737 C68.64954911 512.34068022 38.90871327 512.68292 9.07350159 512.63611603 C5.41881516 512.63047241 1.76413339 512.62765403 -1.89055634 512.62503433 C-35.73928403 512.58976298 -69.46823988 512.3461352 -103.22270966 509.58099747 C-106.76584039 509.29350557 -110.30994945 509.02090898 -113.85436249 508.74969864 C-121.53914128 508.15733129 -129.22037437 507.52732973 -136.90074921 506.88055801 C-138.66705688 506.73476807 -138.66705688 506.73476807 -140.46904755 506.58603287 C-172.38761359 503.90182921 -199.85380067 496.41048488 -222.1404953 471.88788223 C-226.17339171 467.10170211 -229.33263196 461.71742217 -232.46324921 456.31805801 C-232.95567108 455.48790176 -233.44809296 454.65774551 -233.95543671 453.80243301 C-242.47907026 438.23753695 -243.93585479 420.65489383 -245.46324921 403.31805801 C-245.53994843 402.45708511 -245.61664764 401.59611221 -245.69567108 400.70904922 C-246.33029172 393.55988536 -246.93351439 386.40834583 -247.52574921 379.25555801 C-247.60801758 378.27926437 -247.69028595 377.30297073 -247.7750473 376.29709244 C-250.88565797 339.01154121 -251.81794087 301.79948765 -251.77892303 264.39471817 C-251.7743138 259.61858012 -251.78115577 254.84269815 -251.79943085 250.06659317 C-251.96627719 205.95060768 -250.3657525 161.94960801 -246.2654953 118.01214981 C-245.94871721 114.59898101 -245.65284588 111.18433894 -245.35778046 107.76922989 C-243.09932507 82.39475965 -238.0200805 58.89113318 -220.46324921 39.31805801 C-219.65113983 38.41184708 -218.83903046 37.50563614 -218.00231171 36.57196426 C-211.2088347 29.39000396 -203.97493071 24.25323485 -195.46324921 19.31805801 C-194.63309296 18.82563614 -193.80293671 18.33321426 -192.94762421 17.82587051 C-177.38905589 9.30570215 -159.79635954 7.82657333 -142.46324921 6.31805801 C-141.58767365 6.2413588 -140.71209808 6.16465958 -139.80998993 6.08563614 C-132.50896881 5.44979879 -125.2054896 4.84697673 -117.90074921 4.25555801 C-116.40043152 4.13215546 -116.40043152 4.13215546 -114.86980438 4.00625992 C-107.07211144 3.37136754 -99.27069418 2.81867065 -91.46324921 2.31805801 C-90.42101007 2.25120363 -90.42101007 2.25120363 -89.35771561 2.18299866 C-59.57604753 0.29543581 -29.83521169 -0.04680397 0 0 Z " fill="#E60000" transform="translate(251.46324920654297,-0.3180580139160156)"/>
<path d="M0 0 C2.56750561 0.17453966 5.13546885 0.34063184 7.70361328 0.50549316 C12.18846375 0.79529809 16.67197723 1.10085795 21.15487671 1.41940308 C22.84334512 1.53901649 24.53200219 1.65600304 26.22085571 1.77005005 C46.73311023 3.17888802 65.9822615 8.30665826 80.48486328 23.85827637 C87.65210683 32.39015008 89.73709754 41.59703068 91.17236328 52.41467285 C91.37625225 53.85448111 91.58093508 55.29417715 91.78637695 56.73376465 C92.36698514 60.8732262 92.89777472 65.01775046 93.42236328 69.16467285 C93.55658691 70.16514648 93.69081055 71.16562012 93.82910156 72.19641113 C98.32677881 106.65329995 103.91817051 174.59640582 82.42236328 204.16467285 C70.73718989 218.25561724 54.23608096 225.79306743 36.21923828 227.55529785 C32.53937575 227.88141028 28.8572212 228.15211541 25.17236328 228.41467285 C23.36229667 228.56101313 21.55239806 228.7094467 19.74267578 228.85998535 C14.99269265 229.2488155 10.24041607 229.59536968 5.48675537 229.93582153 C2.3150991 230.17268343 -0.85336852 230.43753448 -4.02246094 230.7064209 C-21.99619183 232.18393398 -39.86903514 232.52523601 -57.89030457 232.48232651 C-60.2403897 232.47708871 -62.59046152 232.47517276 -64.94055176 232.47366333 C-92.56561491 232.44287755 -120.04058488 231.46614264 -147.57763672 229.16467285 C-149.11311252 229.04057548 -150.64859403 228.91654887 -152.18408203 228.79260254 C-156.11021304 228.46997319 -160.03170877 228.10832972 -163.95263672 227.72717285 C-164.99774414 227.6294458 -166.04285156 227.53171875 -167.11962891 227.43103027 C-184.28096982 225.52054644 -199.02559977 218.04674026 -210.42919922 205.05529785 C-218.03025917 195.39483742 -219.56955425 184.33467839 -221.07763672 172.47717285 C-221.19494141 171.60512207 -221.31224609 170.73307129 -221.43310547 169.83459473 C-223.7490186 151.94229814 -224.98560272 134.14132035 -224.95263672 116.10217285 C-224.9530899 115.1216394 -224.95354309 114.14110596 -224.95401001 113.13085938 C-224.92786014 93.63681728 -223.42233156 74.44437597 -220.57763672 55.16467285 C-220.40498795 53.9894104 -220.40498795 53.9894104 -220.22885132 52.79040527 C-219.86475423 50.35587092 -219.48590518 47.92413475 -219.10107422 45.49279785 C-218.98801437 44.74914978 -218.87495453 44.00550171 -218.75846863 43.23931885 C-216.8695801 31.73054808 -210.5304157 23.44031399 -201.57763672 16.16467285 C-187.85485225 6.50439236 -173.59650593 3.49814085 -157.20263672 2.03967285 C-155.88894104 1.91743347 -155.88894104 1.91743347 -154.54870605 1.79272461 C-148.22849664 1.20491069 -141.90498138 0.66950621 -135.57763672 0.16467285 C-134.79908325 0.1019519 -134.02052979 0.03923096 -133.21838379 -0.02539062 C-89.0355185 -3.53013702 -44.19562975 -3.03769878 0 0 Z " fill="#FEFEFE" transform="translate(320.57763671875,140.8353271484375)"/>
<path d="M0 0 C7.07050448 3.85663881 13.95052012 7.72695687 20.75 12 C22.58804873 13.1466239 24.42660896 14.29242817 26.265625 15.4375 C27.20728516 16.02402344 28.14894531 16.61054688 29.11914062 17.21484375 C33.89420221 20.17376327 38.69730557 23.08622462 43.5 26 C51.70743592 30.98338108 59.88865822 36.00632887 68.03979492 41.08129883 C72.81148753 44.04674982 77.60470599 46.97087429 82.42578125 49.85546875 C83.49054688 50.49484375 84.5553125 51.13421875 85.65234375 51.79296875 C87.72809891 53.03739551 89.80743366 54.27587448 91.890625 55.5078125 C92.82003906 56.06597656 93.74945313 56.62414062 94.70703125 57.19921875 C95.5369458 57.69252686 96.36686035 58.18583496 97.22192383 58.6940918 C97.80868896 59.1250415 98.3954541 59.55599121 99 60 C99 60.66 99 61.32 99 62 C97.49731445 63.12231445 97.49731445 63.12231445 95.36328125 64.36328125 C94.56970215 64.83088867 93.77612305 65.29849609 92.95849609 65.78027344 C92.08531738 66.2859082 91.21213867 66.79154297 90.3125 67.3125 C88.456239 68.40620858 86.60079433 69.50130362 84.74609375 70.59765625 C83.30919189 71.44481201 83.30919189 71.44481201 81.84326172 72.30908203 C77.48580406 74.90050842 73.17911437 77.571201 68.875 80.25 C67.11988597 81.33999561 65.3646751 82.4298353 63.609375 83.51953125 C62.70509766 84.0810791 61.80082031 84.64262695 60.86914062 85.22119141 C47.09151123 93.76304026 33.27299275 102.23974807 19.4375 110.6875 C18.51662598 111.25138428 17.59575195 111.81526855 16.64697266 112.39624023 C15.3347876 113.1959021 15.3347876 113.1959021 13.99609375 114.01171875 C13.24513428 114.47022217 12.4941748 114.92872559 11.72045898 115.40112305 C7.85512947 117.67286701 3.91926666 119.82262963 0 122 C0 81.74 0 41.48 0 0 Z " fill="#E60101" transform="translate(218,195)"/>
</svg>
