<svg version="1.1" id="Layer_1" xmlns="http://www.w3.org/2000/svg" xmlns:xlink="http://www.w3.org/1999/xlink" x="0px" y="0px"
	 width="100%" viewBox="0 0 608 496" enable-background="new 0 0 608 496" xml:space="preserve">
<path fill="#000000" opacity="1.000000" stroke="none" 
	d="
M407.393738,364.602783 
	C416.360565,369.921600 425.859619,372.052429 435.771606,372.716034 
	C437.265015,372.816010 438.774567,372.779419 440.251831,372.984619 
	C441.452972,373.151520 442.505585,373.773834 442.660828,375.143280 
	C442.821167,376.557281 441.812683,377.296844 440.693848,377.680695 
	C439.612091,378.051819 438.422516,378.317719 437.287598,378.293030 
	C422.653473,377.974640 407.994385,379.268250 393.380585,377.383179 
	C382.633911,375.996948 373.213318,371.911591 365.260864,364.529205 
	C351.487366,351.743225 341.025208,336.203308 329.701447,321.406555 
	C318.973389,307.388214 308.685211,293.030640 298.341766,278.722351 
	C295.556458,274.869415 292.309204,272.978546 287.408112,273.261841 
	C281.598785,273.597565 275.744751,273.086975 269.922028,273.288177 
	C265.567871,273.438629 262.467255,272.688416 261.966553,267.506775 
	C261.751801,265.284302 260.201965,263.228149 260.503113,260.652557 
	C263.585754,259.224579 266.452454,260.536774 269.308411,260.969452 
	C278.419281,262.349731 287.604767,262.778198 296.671753,261.314514 
	C308.793976,259.357635 316.910004,251.726868 322.380188,241.112396 
	C327.261383,231.640778 329.526337,221.503372 329.859497,210.846542 
	C330.301605,196.704926 329.230835,182.823502 322.758667,169.964752 
	C313.662659,151.893036 298.759064,142.393097 278.625427,141.261948 
	C270.983093,140.832581 263.339172,141.046997 255.703644,142.153351 
	C251.559784,142.753769 249.596039,144.609680 250.001129,148.656219 
	C250.459274,153.232788 248.567352,155.514740 244.155960,156.957825 
	C236.369186,159.505127 231.472488,165.807083 226.613632,171.992615 
	C225.514557,173.391785 225.127701,175.375305 223.229736,176.230331 
	C221.067627,175.026657 222.026962,172.968231 221.959930,171.329712 
	C221.667709,164.186707 222.345749,156.989746 221.013641,149.906967 
	C219.156693,140.033783 214.411560,135.958817 204.361710,135.370972 
	C202.533493,135.264023 200.696548,135.312790 198.866776,135.224625 
	C196.689835,135.119720 194.050507,135.165634 194.101776,132.164230 
	C194.150528,129.308975 196.863327,128.997299 198.950546,128.941833 
	C203.773849,128.813660 208.617844,128.850693 213.433212,129.148254 
	C230.077164,130.176727 246.700974,129.989639 263.352875,129.156174 
	C284.067322,128.119385 304.759949,128.411819 324.215271,136.892151 
	C348.571564,147.508728 361.849182,173.084290 357.863312,199.394974 
	C354.222595,223.427673 341.638794,242.361633 325.298096,259.358612 
	C319.724091,265.156494 319.733521,265.054657 324.589478,271.328735 
	C343.552185,295.829224 362.350647,320.460510 382.927917,343.658508 
	C390.037689,351.673767 397.780121,358.948822 407.393738,364.602783 
z"/>
<path fill="#000000" opacity="1.000000" stroke="none" 
	d="
M240.980728,218.962952 
	C238.831512,225.269226 237.975403,231.472473 242.464325,237.405762 
	C244.507019,234.690262 245.588867,230.965897 250.501816,230.680435 
	C248.333527,243.109268 255.343063,252.961655 258.778625,263.754974 
	C260.668610,269.692749 261.417206,275.762329 262.039612,281.854462 
	C262.267700,284.086609 263.269196,284.179871 265.060852,284.215942 
	C264.676331,287.057587 264.270203,289.866425 265.938141,292.814545 
	C270.016479,288.783356 274.494232,286.597778 280.348083,290.635620 
	C272.970001,298.732971 271.707062,309.271149 267.910858,318.735504 
	C264.034210,328.400452 258.113403,336.864319 252.402481,345.448761 
	C251.076874,347.441376 250.266220,349.074402 251.121323,351.694702 
	C252.241180,355.126404 252.236801,358.909912 253.175720,362.419067 
	C254.730255,368.229065 258.816071,371.205231 264.773590,371.698029 
	C268.746094,372.026642 272.715149,372.396759 276.685730,372.748566 
	C278.531891,372.912170 280.822388,372.977783 280.810059,375.360596 
	C280.796753,377.934631 278.433624,378.313904 276.389740,378.296570 
	C267.068451,378.217651 257.710541,378.522217 248.435516,377.796936 
	C232.084900,376.518250 215.851395,378.366577 199.581329,378.965240 
	C190.994827,379.281219 182.875534,378.451782 174.919357,374.677856 
	C198.798538,379.345245 216.930511,370.543427 230.934448,351.312073 
	C230.995117,350.988953 230.959930,351.023712 230.959930,351.023712 
	C239.359039,343.635559 243.671982,333.821136 247.110626,323.539215 
	C249.322678,316.924866 249.539734,310.155914 247.808365,303.371338 
	C245.132462,292.885498 235.924026,288.616821 226.264862,288.221039 
	C222.349670,288.060669 220.744049,291.470978 218.187592,293.409576 
	C214.892288,288.082916 218.020172,284.383392 227.573837,281.761963 
	C220.380096,280.646118 218.076874,281.787994 214.967255,288.063873 
	C211.226532,288.510773 212.349350,284.408142 210.496658,283.137085 
	C204.035416,286.105286 200.570892,298.848999 204.009186,306.828918 
	C207.127121,314.065338 217.135834,318.301788 224.734009,315.249390 
	C224.988602,315.005280 224.961105,315.022278 224.961105,315.022278 
	C230.829758,311.727203 231.914871,308.306580 228.435440,303.652344 
	C226.657684,305.449829 226.341156,310.206451 222.104034,307.217865 
	C219.319641,305.253967 219.740524,301.131409 222.746964,299.187622 
	C225.867538,297.170074 230.837402,298.136108 233.091019,301.198273 
	C240.434647,311.176666 234.861557,324.752625 222.655243,326.564484 
	C220.361786,326.904877 218.043152,327.075500 215.890747,327.307800 
	C214.425781,328.665161 216.589615,329.921051 215.597244,331.261566 
	C215.241058,331.280670 214.711594,331.463318 214.319778,331.305084 
	C211.835587,330.301575 209.317169,329.366211 206.612061,329.395905 
	C201.941254,329.447113 198.772293,326.989227 196.256714,323.420410 
	C187.442719,310.916077 186.813095,291.175110 197.103729,280.045746 
	C204.311081,272.251007 214.419739,267.163574 226.143799,269.139771 
	C231.031021,269.963562 235.718781,271.660645 240.451141,273.276978 
	C235.960236,268.755707 230.278366,266.310486 224.444931,264.236847 
	C210.860199,259.407837 206.907150,254.332550 205.455963,239.050125 
	C209.759109,239.507584 213.986526,239.957001 218.283356,240.413788 
	C219.621750,239.204773 217.877426,237.504395 219.185028,235.910324 
	C225.241776,238.147873 230.817917,241.453827 235.987106,245.695404 
	C231.284286,236.249832 225.840714,227.399139 218.240570,219.716675 
	C216.448456,222.149414 218.246353,224.723221 216.009720,226.603592 
	C211.862122,224.297089 207.626968,222.093552 202.606781,221.210510 
	C198.589798,220.503952 196.418793,216.442291 195.146912,212.469452 
	C191.277161,200.381943 186.500870,198.531754 175.410797,204.822556 
	C175.209961,204.936478 174.817154,204.711945 173.818054,204.492477 
	C179.667374,196.825226 187.525955,195.427902 195.985001,195.733704 
	C204.603378,196.045227 211.761932,200.362854 219.547394,205.549194 
	C219.469849,198.801758 220.120422,193.078629 221.820221,187.552628 
	C226.546951,172.186066 235.085236,160.233185 251.588577,156.222122 
	C264.703186,153.034698 279.336945,158.406708 286.062073,167.892639 
	C292.123871,176.442886 292.656921,192.877457 282.225891,198.677780 
	C281.182678,199.257889 280.694427,200.231659 280.263458,201.409210 
	C277.865051,207.962067 274.633209,209.913803 267.713348,209.203339 
	C266.723297,209.101685 265.750061,208.841446 264.766815,208.667236 
	C258.595306,207.573715 257.326019,207.952301 253.345642,212.062668 
	C246.902847,206.596497 249.528366,195.827408 258.192108,192.670273 
	C260.959839,191.661682 263.125336,190.983688 264.761871,187.729141 
	C267.104980,183.069397 269.928131,187.891663 272.323944,188.711823 
	C274.487427,189.014145 273.974731,186.120209 276.003784,186.243866 
	C277.871826,186.656097 278.593994,190.905914 281.440125,188.670212 
	C283.708282,186.888519 283.674957,184.111298 282.940033,181.313202 
	C280.961304,173.779633 275.501801,168.866058 267.677307,168.363937 
	C264.896118,168.185471 262.652405,167.459015 260.327301,165.936279 
	C254.599365,162.184937 248.772415,163.002457 243.486954,168.616913 
	C251.265503,166.179642 258.135498,165.987076 263.074341,172.231323 
	C265.178680,174.891891 265.047546,178.424896 262.764740,181.814148 
	C257.952209,178.198517 252.814316,176.429672 246.926895,177.947876 
	C238.355545,180.158173 232.712524,187.954819 231.342682,199.619507 
	C231.148560,201.272491 231.006927,202.944229 231.018280,204.606079 
	C231.041046,207.940323 231.513306,211.201614 232.266617,214.480057 
	C233.369064,219.277969 238.073853,216.654861 240.689636,218.902893 
	C241.010483,218.995087 240.980728,218.962952 240.980728,218.962952 
z"/>
<path fill="#000000" opacity="1.000000" stroke="none" 
	d="
M231.009644,350.968933 
	C227.828812,353.990723 224.633438,357.032562 221.696503,359.828369 
	C219.919052,359.196991 219.939865,358.299469 220.091248,357.515717 
	C221.643280,349.479523 221.910324,341.347992 221.839417,333.203369 
	C221.814163,330.300842 222.873871,328.604675 225.722946,327.693237 
	C234.384232,324.922394 237.541168,317.899475 238.500900,309.763428 
	C239.303650,302.958221 233.903992,297.300110 226.485825,296.499176 
	C224.306183,296.263824 221.833633,296.680328 222.059280,293.363220 
	C222.274384,290.200897 224.734726,289.963654 227.142166,289.833588 
	C235.893463,289.360748 244.468994,296.637756 246.372864,305.459686 
	C248.382462,314.771515 246.012970,323.158295 242.330460,331.529358 
	C239.363190,338.274628 234.919067,344.093994 231.089294,350.699890 
	C230.959930,351.023712 230.995117,350.988953 231.009644,350.968933 
z"/>
<path fill="#000000" opacity="1.000000" stroke="none" 
	d="
M241.028717,219.007263 
	C240.422928,218.479279 239.860809,217.573517 239.165253,217.455688 
	C232.405579,216.310745 232.331467,211.222198 232.375824,206.099274 
	C232.422318,200.727814 233.521439,195.534561 235.332535,190.489471 
	C236.183167,188.119934 237.303040,185.897156 239.160919,184.133438 
	C241.729279,181.695221 244.774704,178.651550 248.179413,179.986801 
	C251.195496,181.169632 249.819534,185.312439 249.939896,188.188660 
	C250.120483,192.503937 250.096634,196.790619 248.525269,200.987350 
	C247.654816,203.312149 247.557419,206.042953 248.536865,208.364059 
	C250.780396,213.680832 249.876694,219.193253 249.962662,224.637283 
	C250.043396,229.749588 245.292007,230.854095 242.296173,234.021912 
	C240.193344,230.154892 239.120911,226.781403 242.151825,223.585464 
	C243.990997,221.646194 243.418503,220.449127 241.274384,219.088562 
	C240.980728,218.962952 241.010483,218.995087 241.028717,219.007263 
z"/>
<path fill="#000000" opacity="1.000000" stroke="none" 
	d="
M227.554001,234.603317 
	C228.413361,236.883942 227.987061,237.991837 225.714157,237.191788 
	C222.568939,236.084732 221.109024,234.066467 222.722916,230.483368 
	C225.394547,230.428635 226.180084,232.629990 227.554001,234.603317 
z"/>
<path fill="#000000" opacity="1.000000" stroke="none" 
	d="
M225.000885,314.995911 
	C223.471100,314.740417 221.919525,314.240021 222.270966,312.334930 
	C222.732071,309.835175 224.947571,310.058258 226.747955,309.615784 
	C228.131287,312.061523 226.067215,313.050140 225.126556,314.749268 
	C224.961105,315.022278 224.988602,315.005280 225.000885,314.995911 
z"/>
</svg>